<?xml version="1.0" encoding="UTF-8" standalone="no"?><!-- Generator: Adobe Illustrator 21.0.0, SVG Export Plug-In . SVG Version: 6.00 Build 0)  -->

<svg xmlns:cc="http://creativecommons.org/ns#" xmlns:dc="http://purl.org/dc/elements/1.1/"
    xmlns:inkscape="http://www.inkscape.org/namespaces/inkscape"
    xmlns:rdf="http://www.w3.org/1999/02/22-rdf-syntax-ns#"
    xmlns:sodipodi="http://sodipodi.sourceforge.net/DTD/sodipodi-0.dtd" height="512" id="Capa_1"
    version="1.1" viewBox="0 0 512 512" width="512" x="0px" xmlns="http://www.w3.org/2000/svg"
    y="0px" inkscape:version="0.92.4 (5da689c313, 2019-01-14)" sodipodi:docname="clue_checked.svg"
    xml:space="preserve"><metadata
   id="metadata27"><rdf:RDF><cc:Work
       rdf:about=""><dc:format>image/svg+xml</dc:format><dc:type
    rdf:resource="http://purl.org/dc/dcmitype/StillImage" /><dc:title></dc:title></cc:Work></rdf:RDF></metadata>
    <defs id="defs25" />
    <sodipodi:namedview bordercolor="#666666" borderopacity="1" fit-margin-bottom="0"
        fit-margin-left="0" fit-margin-right="0" fit-margin-top="0" gridtolerance="10"
        guidetolerance="10" id="namedview23" objecttolerance="10" pagecolor="#ffffff"
        showgrid="false" inkscape:current-layer="Capa_1" inkscape:cx="309.03892"
        inkscape:cy="141.42249" inkscape:pageopacity="0" inkscape:pageshadow="2"
        inkscape:window-height="1008" inkscape:window-maximized="0" inkscape:window-width="958"
        inkscape:window-x="338" inkscape:window-y="0" inkscape:zoom="0.97968464" />


    <g id="g42" transform="translate(-141.60764,33.853149)" />
    <g style="fill:#ffd15d;fill-opacity:1" id="g12"><g
     style="fill:#ffd15d;fill-opacity:1"
     id="g10"><g
       style="fill:#ffd15d;fill-opacity:1"
       id="g8"><g
         style="fill:#ffd15d;fill-opacity:1"
         id="g6"><g
           style="fill:#ffd15d;fill-opacity:1"
           id="g4"><circle
             style="fill:#ffd15d;fill-opacity:1"
             cx="256"
             cy="256"
             id="circle2"
             r="256" /></g></g></g></g></g>
    <path style="fill:#f9b54c;fill-opacity:1"
        d="m 512,256 c 0,-4.211 -0.109,-8.397 -0.31,-12.558 L 417.424,149.176 99.572,355.632 155.186,411.246 144,435 218.219,509.219 C 230.549,511.043 243.162,512 256,512 397.385,512 512,397.385 512,256 Z"
        id="path14" inkscape:connector-curvature="0" />
    <path style="fill:#ffffff"
        d="M 393.674,138 H 118.326 C 101.301,138 87.5,151.801 87.5,168.826 V 331.174 C 87.5,348.199 101.301,362 118.326,362 H 144 v 73 l 87.407,-73 h 162.266 c 17.025,0 30.826,-13.801 30.826,-30.826 V 168.826 C 424.5,151.801 410.699,138 393.674,138 Z"
        id="path16" inkscape:connector-curvature="0" />
    <path style="fill:#dce1eb"
        d="M 393.674,138 H 255.905 v 224 h 137.769 c 17.025,0 30.826,-13.801 30.826,-30.826 V 168.826 C 424.5,151.801 410.699,138 393.674,138 Z"
        id="path18" inkscape:connector-curvature="0" />
    <rect style="fill:#272525;fill-opacity:1;stroke-width:1.25058651" height="17" id="rect867"
        ry="8.3728313" width="265" x="122" y="177" />
    <rect style="fill:#272525;fill-opacity:1;stroke-width:1.04490459" height="17" id="rect867-4-6"
        ry="8.3728313" width="185" x="122" y="241" />
    <rect style="fill:#272525;fill-opacity:1;stroke-width:0.61936617" height="17" id="rect867-4-6-1"
        ry="8.3728313" width="65" x="322" y="241" />
    <rect style="fill:#272525;fill-opacity:1;stroke-width:1.04490459" height="17" id="rect867-4-6-2"
        ry="8.3728313" width="185" x="202" y="273" />
    <rect style="fill:#59595b;fill-opacity:1;stroke-width:0.61936617" height="17"
        id="rect867-4-6-1-5" ry="8.3728313" width="65" x="122" y="273" />
    <path style="fill:#59595b;fill-opacity:1;stroke-width:1.25058651"
        d="M 130.37305 177 C 125.7345 177 122 180.7345 122 185.37305 L 122 185.62695 C 122 190.2655 125.7345 194 130.37305 194 L 255.18359 194 L 255.18359 177 L 130.37305 177 z "
        id="rect867-5" />
    <path style="fill:#59595b;fill-opacity:1;stroke-width:1.04490459"
        d="M 130.37305 241 C 125.7345 241 122 244.7345 122 249.37305 L 122 249.62695 C 122 254.2655 125.7345 258 130.37305 258 L 255.18359 258 L 255.18359 241 L 130.37305 241 z "
        id="rect867-4-6-21" />
    <path style="fill:#59595b;fill-opacity:1;stroke-width:1.04490459"
        d="M 210.37305 273 C 205.7345 273 202 276.7345 202 281.37305 L 202 281.62695 C 202 286.2655 205.7345 290 210.37305 290 L 256.20508 290 L 256.20508 273 L 210.37305 273 z "
        id="rect867-4-6-2-2" />
    <rect style="fill:#272525;fill-opacity:1;stroke-width:1.25058651" height="17" id="rect867-7"
        ry="8.3728313" width="265" x="122" y="209" />
    <path style="fill:#59595b;fill-opacity:1;stroke-width:1.25058651"
        d="M 130.37305,209 C 125.7345,209 122,212.7345 122,217.37305 v 0.2539 C 122,222.2655 125.7345,226 130.37305,226 h 124.81054 v -17 z"
        id="rect867-5-2" inkscape:connector-curvature="0" />
    <rect style="fill:#272525;fill-opacity:1;stroke-width:1.25058651" height="17" id="rect867-7-8"
        ry="8.3728313" width="265" x="122" y="305" />
    <path style="fill:#59595b;fill-opacity:1;stroke-width:1.25058651"
        d="M 130.37305,305 C 125.7345,305 122,308.7345 122,313.37305 v 0.2539 C 122,318.2655 125.7345,322 130.37305,322 h 124.81054 v -17 z"
        id="rect867-5-2-2" inkscape:connector-curvature="0" /></svg>