<?xml version="1.0" encoding="UTF-8" standalone="no"?>
<!-- Generator: Adobe Illustrator 21.0.0, SVG Export Plug-In . SVG Version: 6.00 Build 0)  -->

<svg
   xmlns:dc="http://purl.org/dc/elements/1.1/"
   xmlns:cc="http://creativecommons.org/ns#"
   xmlns:rdf="http://www.w3.org/1999/02/22-rdf-syntax-ns#"
   xmlns:svg="http://www.w3.org/2000/svg"
   xmlns="http://www.w3.org/2000/svg"
   xmlns:sodipodi="http://sodipodi.sourceforge.net/DTD/sodipodi-0.dtd"
   xmlns:inkscape="http://www.inkscape.org/namespaces/inkscape"
   version="1.1"
   id="Capa_1"
   x="0px"
   y="0px"
   viewBox="0 0 512 512"
   style="enable-background:new 0 0 512 512;"
   xml:space="preserve"
   width="512"
   height="512"
   sodipodi:docname="start_hunt.svg"
   inkscape:version="0.92.4 (5da689c313, 2019-01-14)"><metadata
   id="metadata25"><rdf:RDF><cc:Work
       rdf:about=""><dc:format>image/svg+xml</dc:format><dc:type
         rdf:resource="http://purl.org/dc/dcmitype/StillImage" /></cc:Work></rdf:RDF></metadata><defs
   id="defs23" /><sodipodi:namedview
   pagecolor="#ffffff"
   bordercolor="#666666"
   borderopacity="1"
   objecttolerance="10"
   gridtolerance="10"
   guidetolerance="10"
   inkscape:pageopacity="0"
   inkscape:pageshadow="2"
   inkscape:window-width="958"
   inkscape:window-height="1008"
   id="namedview21"
   showgrid="false"
   inkscape:zoom="0.4609375"
   inkscape:cx="256"
   inkscape:cy="256"
   inkscape:window-x="-7"
   inkscape:window-y="0"
   inkscape:window-maximized="0"
   inkscape:current-layer="g18" />
<g
   id="g18">
	<circle
   style="fill:#ffd15d;fill-opacity:1"
   cx="256"
   cy="256"
   r="256"
   id="circle2" />
	<path
   style="fill:#f9b54c;fill-opacity:1"
   d="M102.614,344.55l167.083,167.083c130.489-6.88,235.072-111.472,241.938-241.964l-102.25-102.25   L102.614,344.55z"
   id="path4" />
	<g
   id="g16">
		<polygon
   style="fill:#C8AD92;"
   points="409.386,167.42 409.386,388.865 304.832,348.9 207.624,385.455 102.614,344.55     102.614,123.135 207.624,163.926 304.832,126.629   "
   id="polygon6" />
		<polygon
   style="fill:#B38A65;"
   points="304.832,126.629 304.832,348.9 207.624,385.455 207.624,163.926   "
   id="polygon8" />
		<path
   style="fill:#EFE6DE;"
   d="M354.029,255.467l-71.163,45.884c-4.835,3.116-10.797,4.056-16.357,2.57    c-4.032-1.078-7.609-3.361-10.282-6.483c-1.013-1.186-1.899-2.493-2.624-3.901l-16.285-31.558c-0.479-0.929-1.294-1.21-1.738-1.3    c-0.437-0.084-1.3-0.126-2.091,0.563l-54.494,47.154c-3.829,3.307-8.532,5.021-13.319,5.021c-2.888,0-5.8-0.623-8.568-1.887    c-7.376-3.367-11.953-10.497-11.953-18.604v-75.573h17.975v75.573c0,1.318,0.791,1.953,1.45,2.259    c0.659,0.3,1.66,0.479,2.654-0.383l54.494-47.154c4.775-4.128,11.067-5.812,17.262-4.614c6.195,1.192,11.408,5.093,14.302,10.701    l2.936,5.692l13.349,25.866c0.419,0.809,1.084,1.132,1.564,1.258c0.485,0.132,1.222,0.18,1.983-0.312l71.163-45.884    L354.029,255.467z"
   id="path10" />
		<polygon
   style="fill:#FF4F19;"
   points="181.471,198.941 169.608,185.437 154.142,199.024 138.677,185.437 126.813,198.941     140.525,210.987 126.813,223.033 138.677,236.537 154.142,222.95 169.608,236.537 181.471,223.033 167.76,210.987   "
   id="polygon12" />
		<path
   style="fill:#009100;"
   d="M363.04,264.736c-14.983,0-27.173-12.19-27.173-27.173c0-14.983,12.19-27.173,27.173-27.173    c14.983,0,27.173,12.19,27.173,27.173C390.213,252.546,378.023,264.736,363.04,264.736z M363.04,228.365    c-5.072,0-9.198,4.126-9.198,9.198c0,5.072,4.126,9.198,9.198,9.198c5.072,0,9.198-4.126,9.198-9.198    C372.238,232.491,368.112,228.365,363.04,228.365z"
   id="path14" />
	</g>
</g>















</svg>