<?xml version="1.0" encoding="UTF-8" standalone="no"?>
<svg
   xmlns:dc="http://purl.org/dc/elements/1.1/"
   xmlns:cc="http://creativecommons.org/ns#"
   xmlns:rdf="http://www.w3.org/1999/02/22-rdf-syntax-ns#"
   xmlns:svg="http://www.w3.org/2000/svg"
   xmlns="http://www.w3.org/2000/svg"
   xmlns:sodipodi="http://sodipodi.sourceforge.net/DTD/sodipodi-0.dtd"
   xmlns:inkscape="http://www.inkscape.org/namespaces/inkscape"
   height="511pt"
   viewBox="0 -36 511.99898 511"
   width="511pt"
   version="1.1"
   id="svg1019"
   sodipodi:docname="hunt_clue_solved.svg"
   inkscape:version="0.92.4 (5da689c313, 2019-01-14)">
  <metadata
     id="metadata1025">
    <rdf:RDF>
      <cc:Work
         rdf:about="">
        <dc:format>image/svg+xml</dc:format>
        <dc:type
           rdf:resource="http://purl.org/dc/dcmitype/StillImage" />
      </cc:Work>
    </rdf:RDF>
  </metadata>
  <defs
     id="defs1023" />
  <sodipodi:namedview
     pagecolor="#ffffff"
     bordercolor="#666666"
     borderopacity="1"
     objecttolerance="10"
     gridtolerance="10"
     guidetolerance="10"
     inkscape:pageopacity="0"
     inkscape:pageshadow="2"
     inkscape:window-width="1920"
     inkscape:window-height="1017"
     id="namedview1021"
     showgrid="false"
     inkscape:zoom="0.97970959"
     inkscape:cx="356.47769"
     inkscape:cy="297.71086"
     inkscape:window-x="-8"
     inkscape:window-y="-8"
     inkscape:window-maximized="1"
     inkscape:current-layer="svg1019" />
  <path
     d="m423.515625 70.382812-167.515625 20.359376-167.515625-20.359376v-34.941406l167.515625-17.472656 167.515625 17.472656zm0 0"
     fill="#7e7ce8"
     id="path965" />
  <path
     d="m143.675781 29.683594-55.191406 5.757812v34.941406l87.871094 10.679688zm0 0"
     fill="#7c62e8"
     id="path967" />
  <path
     d="m88.484375.5h335.03125v34.941406h-335.03125zm0 0"
     fill="#6ee6db"
     id="path969" />
  <path
     d="m88.484375 70.382812h335.03125v34.941407h-335.03125zm0 0"
     fill="#ff8892"
     id="path971" />
  <path
     d="m169.5625 70.382812h-81.078125v34.941407h103.304687zm0 0"
     fill="#ff5754"
     id="path973" />
  <path
     d="m125.113281.5h-36.628906v34.941406h58.855469zm0 0"
     fill="#26bed3"
     id="path975" />
  <path
     d="m368.320312 29.683594 55.195313 5.757812v34.941406l-87.871094 10.679688zm0 0"
     fill="#7c62e8"
     id="path977" />
  <path
     d="m342.4375 70.382812h81.078125v34.941407h-103.304687zm0 0"
     fill="#ff5754"
     id="path979" />
  <path
     d="m386.886719.5h36.628906v34.941406h-58.855469zm0 0"
     fill="#26bed3"
     id="path981" />
  <path
     d="m187.054688 226.878906-27.757813 27.765625-83.398437-92.078125-51.398438-119.847656 31.996094-21.109375 79.160156 92.082031zm0 0"
     fill="#7e7ce8"
     id="path983" />
  <path
     d="m99.59375 188.726562 59.703125 65.917969 27.757813-27.761719-40.484376-89.164062c-18.6875 13.867188-34.65625 31.1875-46.976562 51.007812zm0 0"
     fill="#7c62e8"
     id="path985" />
  <path
     d="m24.5 42.71875-15.425781 10.175781c-9.199219 6.066407-11.832031 18.390625-5.917969 27.6875l128.378906 201.828125 27.765625-27.765625zm0 0"
     fill="#6ee6db"
     id="path987" />
  <path
     d="m214.820312 199.117188-27.765624 27.761718-130.558594-205.269531 31.988281-21.109375zm0 0"
     fill="#ff8892"
     id="path989" />
  <path
     d="m324.945312 226.878906 27.753907 27.765625 83.402343-92.078125 51.398438-119.847656-31.996094-21.109375-79.164062 92.082031zm0 0"
     fill="#7e7ce8"
     id="path991" />
  <path
     d="m487.5 42.71875 15.425781 10.175781c9.199219 6.066407 11.832031 18.390625 5.917969 27.6875l-128.378906 201.828125-27.765625-27.765625zm0 0"
     fill="#6ee6db"
     id="path993" />
  <path
     d="m297.179688 199.117188 27.765624 27.761718 130.558594-205.269531-31.988281-21.109375zm0 0"
     fill="#ff8892"
     id="path995" />
  <path
     d="m187.054688 226.878906 27.765624-27.761718-47.53125-74.726563c-11.257812 6.222656-21.800781 13.582031-31.46875 21.9375zm0 0"
     fill="#ff5754"
     id="path997" />
  <path
     d="m87.101562 212.558594 44.433594 69.851562 27.765625-27.765625-50.496093-79.386719c-8.621094 11.472657-15.921876 23.980469-21.703126 37.300782zm0 0"
     fill="#26bed3"
     id="path999" />
  <path
     d="m412.402344 188.726562-59.703125 65.917969-27.753907-27.761719 40.484376-89.164062c18.6875 13.867188 34.65625 31.1875 46.972656 51.007812zm0 0"
     fill="#7c62e8"
     id="path1001" />
  <path
     d="m324.945312 226.878906-27.765624-27.761718 47.527343-74.726563c11.261719 6.222656 21.804688 13.582031 31.46875 21.9375zm0 0"
     fill="#ff5754"
     id="path1003" />
  <path
     d="m424.894531 212.558594-44.429687 69.851562-27.765625-27.765625 50.496093-79.386719c8.617188 11.472657 15.921876 23.980469 21.699219 37.300782zm0 0"
     fill="#26bed3"
     id="path1005" />
  <path
     d="m409.109375 285.566406c0 84.5625-68.550781 153.109375-153.109375 153.109375-84.5625 0-153.109375-68.546875-153.109375-153.109375 0-84.558594 68.546875-153.109375 153.109375-153.109375 84.558594 0 153.109375 68.550781 153.109375 153.109375zm0 0"
     fill="#ffb44f"
     id="path1007"
     style="fill:#f4cd1e;fill-opacity:1" />
  <path
     d="m375.191406 285.566406c0 65.828125-53.363281 119.191406-119.191406 119.191406s-119.191406-53.363281-119.191406-119.191406 53.363281-119.191406 119.191406-119.191406 119.191406 53.363281 119.191406 119.191406zm0 0"
     fill="#ffe967"
     id="path1009"
     style="fill:#f6db6d;fill-opacity:1" />
  <g
     fill="#2d3c50"
     id="g1017">
    <path
       d="m190.566406 296.054688c-4.269531 0-7.726562-3.460938-7.726562-7.726563v-11.84375c0-4.265625 3.457031-7.726563 7.726562-7.726563 4.269532 0 7.726563 3.460938 7.726563 7.726563v11.84375c0 4.265625-3.457031 7.726563-7.726563 7.726563zm0 0"
       id="path1011" />
    <path
       d="m321.433594 296.054688c-4.269532 0-7.726563-3.460938-7.726563-7.726563v-11.84375c0-4.265625 3.457031-7.726563 7.726563-7.726563 4.265625 0 7.726562 3.460938 7.726562 7.726563v11.84375c0 4.265625-3.460937 7.726563-7.726562 7.726563zm0 0"
       id="path1013" />
    <path
       d="m256 302.375c-8.523438 0-16.53125-3.566406-21.96875-9.789062-2.808594-3.210938-2.480469-8.089844.734375-10.902344 3.210937-2.804688 8.09375-2.480469 10.902344.734375 2.5 2.863281 6.265625 4.503906 10.332031 4.503906 4.0625 0 7.832031-1.644531 10.332031-4.503906 2.808594-3.214844 7.6875-3.542969 10.902344-.734375 3.210937 2.808594 3.539063 7.691406.730469 10.902344-5.4375 6.222656-13.441406 9.789062-21.964844 9.789062zm0 0"
       id="path1015" />
  </g>
</svg>
