<?xml version="1.0" encoding="iso-8859-1"?>
<!-- Generator: Adobe Illustrator 19.0.0, SVG Export Plug-In . SVG Version: 6.00 Build 0)  -->
<svg version="1.1" id="Layer_1" xmlns="http://www.w3.org/2000/svg" xmlns:xlink="http://www.w3.org/1999/xlink" x="0px" y="0px"
	 viewBox="0 0 512 512" style="enable-background:new 0 0 512 512;" xml:space="preserve">
<circle style="fill:#386895;" cx="256" cy="256" r="256"/>
<path style="fill:#273B7A;" d="M509.945,288.589l-144.22-144.22L242.497,261.46l-98.059,104.358l144.129,144.129
	C403.902,495.304,495.292,403.92,509.945,288.589z"/>
<path style="fill:#FFFFFF;" d="M359.434,369.778H152.566c-5.713,0-10.343-4.63-10.343-10.343V152.566
	c0-5.713,4.63-10.343,10.343-10.343h206.869c5.713,0,10.343,4.63,10.343,10.343v206.869
	C369.778,365.147,365.147,369.778,359.434,369.778z"/>
<path style="fill:#D0D1D3;" d="M359.434,142.222H255.426v227.556h104.008c5.713,0,10.343-4.632,10.343-10.343V152.566
	C369.778,146.853,365.147,142.222,359.434,142.222z"/>
<rect x="163.771" y="163.771" style="fill:#FFFFFF;" width="70.68" height="70.68"/>
<path style="fill:#59595B;" d="M234.451,243.071h-70.68c-4.761,0-8.62-3.858-8.62-8.62v-70.68c0-4.761,3.858-8.62,8.62-8.62h70.68
	c4.761,0,8.62,3.858,8.62,8.62v70.68C243.071,239.213,239.213,243.071,234.451,243.071z M172.391,225.832h53.441v-53.441h-53.441
	V225.832z"/>
<rect x="194.836" y="194.836" style="fill:#FFFFFF;" width="8.568" height="8.568"/>
<path style="fill:#59595B;" d="M203.393,212.013h-8.566c-4.761,0-8.62-3.858-8.62-8.62v-8.566c0-4.761,3.858-8.62,8.62-8.62h8.566
	c4.761,0,8.62,3.858,8.62,8.62v8.566C212.013,208.155,208.155,212.013,203.393,212.013z"/>
<rect x="163.771" y="277.549" style="fill:#FFFFFF;" width="70.68" height="70.68"/>
<path style="fill:#59595B;" d="M234.451,356.848h-70.68c-4.761,0-8.62-3.858-8.62-8.62v-70.68c0-4.761,3.858-8.62,8.62-8.62h70.68
	c4.761,0,8.62,3.858,8.62,8.62v70.68C243.071,352.99,239.213,356.848,234.451,356.848z M172.391,339.609h53.441v-53.441h-53.441
	V339.609z"/>
<rect x="194.836" y="308.596" style="fill:#FFFFFF;" width="8.568" height="8.568"/>
<path style="fill:#59595B;" d="M203.393,325.791h-8.566c-4.761,0-8.62-3.858-8.62-8.62v-8.566c0-4.761,3.858-8.62,8.62-8.62h8.566
	c4.761,0,8.62,3.858,8.62,8.62v8.566C212.013,321.932,208.155,325.791,203.393,325.791z"/>
<path style="fill:#272525;" d="M348.229,243.071h-70.68c-4.761,0-8.62-3.858-8.62-8.62v-70.68c0-4.761,3.858-8.62,8.62-8.62h70.68
	c4.761,0,8.62,3.858,8.62,8.62v70.68C356.848,239.213,352.99,243.071,348.229,243.071z M286.168,225.832h53.441v-53.441h-53.441
	V225.832z"/>
<rect x="308.596" y="194.836" style="fill:#FFFFFF;" width="8.568" height="8.568"/>
<g>
	<path style="fill:#272525;" d="M317.171,212.013h-8.566c-4.761,0-8.62-3.858-8.62-8.62v-8.566c0-4.761,3.858-8.62,8.62-8.62h8.566
		c4.761,0,8.62,3.858,8.62,8.62v8.566C325.791,208.155,321.932,212.013,317.171,212.013z"/>
	<path style="fill:#272525;" d="M341.333,293.064h-28.444c-4.761,0-8.62-3.858-8.62-8.62s3.858-8.62,8.62-8.62h28.444
		c4.761,0,8.62,3.858,8.62,8.62S346.095,293.064,341.333,293.064z"/>
	<path style="fill:#272525;" d="M284.439,293.064c-2.26,0-4.484-0.914-6.085-2.517c-1.603-1.62-2.534-3.829-2.534-6.103
		c0-2.26,0.931-4.484,2.534-6.103c1.603-1.605,3.827-2.517,6.085-2.517c2.274,0,4.498,0.912,6.103,2.517
		c1.603,1.619,2.517,3.827,2.517,6.103c0,2.274-0.914,4.498-2.517,6.103C288.937,292.15,286.713,293.064,284.439,293.064z"/>
	<path style="fill:#272525;" d="M312.884,349.953c-2.276,0-4.499-0.931-6.085-2.536c-1.603-1.586-2.534-3.81-2.534-6.084
		c0-2.276,0.931-4.499,2.534-6.103c1.603-1.605,3.827-2.517,6.085-2.517c2.274,0,4.498,0.912,6.103,2.517
		c1.603,1.619,2.517,3.843,2.517,6.103c0,2.274-0.914,4.482-2.517,6.084C317.381,349.022,315.158,349.953,312.884,349.953z"/>
	<path style="fill:#272525;" d="M284.444,349.953c-4.761,0-8.62-3.858-8.62-8.62v-28.444c0-4.761,3.858-8.62,8.62-8.62
		s8.62,3.858,8.62,8.62v28.444C293.064,346.095,289.206,349.953,284.444,349.953z"/>
	<path style="fill:#272525;" d="M341.333,321.508h-28.444c-4.761,0-8.62-3.858-8.62-8.62s3.858-8.62,8.62-8.62h28.444
		c4.761,0,8.62,3.858,8.62,8.62S346.095,321.508,341.333,321.508z"/>
</g>
<g>
</g>
<g>
</g>
<g>
</g>
<g>
</g>
<g>
</g>
<g>
</g>
<g>
</g>
<g>
</g>
<g>
</g>
<g>
</g>
<g>
</g>
<g>
</g>
<g>
</g>
<g>
</g>
<g>
</g>
</svg>
