<?xml version="1.0" encoding="UTF-8" standalone="no"?>
<!-- Generator: Adobe Illustrator 19.0.0, SVG Export Plug-In . SVG Version: 6.00 Build 0)  -->

<svg
   xmlns:dc="http://purl.org/dc/elements/1.1/"
   xmlns:cc="http://creativecommons.org/ns#"
   xmlns:rdf="http://www.w3.org/1999/02/22-rdf-syntax-ns#"
   xmlns:svg="http://www.w3.org/2000/svg"
   xmlns="http://www.w3.org/2000/svg"
   xmlns:sodipodi="http://sodipodi.sourceforge.net/DTD/sodipodi-0.dtd"
   xmlns:inkscape="http://www.inkscape.org/namespaces/inkscape"
   version="1.1"
   id="Layer_1"
   x="0px"
   y="0px"
   viewBox="0 0 512 512"
   style="enable-background:new 0 0 512 512;"
   xml:space="preserve"
   sodipodi:docname="scan_checked.svg"
   inkscape:version="0.92.4 (5da689c313, 2019-01-14)"><metadata
   id="metadata79"><rdf:RDF><cc:Work
       rdf:about=""><dc:format>image/svg+xml</dc:format><dc:type
         rdf:resource="http://purl.org/dc/dcmitype/StillImage" /><dc:title /></cc:Work></rdf:RDF></metadata><defs
   id="defs77" /><sodipodi:namedview
   pagecolor="#ffffff"
   bordercolor="#666666"
   borderopacity="1"
   objecttolerance="10"
   gridtolerance="10"
   guidetolerance="10"
   inkscape:pageopacity="0"
   inkscape:pageshadow="2"
   inkscape:window-width="1613"
   inkscape:window-height="720"
   id="namedview75"
   showgrid="false"
   inkscape:zoom="0.97968464"
   inkscape:cx="-46.677503"
   inkscape:cy="254.14592"
   inkscape:window-x="231"
   inkscape:window-y="47"
   inkscape:window-maximized="0"
   inkscape:current-layer="Layer_1" />
<circle
   style="fill:#386895;"
   cx="256"
   cy="256"
   r="256"
   id="circle2" />
<path
   style="fill:#273B7A;"
   d="M509.945,288.589l-144.22-144.22L242.497,261.46l-98.059,104.358l144.129,144.129  C403.902,495.304,495.292,403.92,509.945,288.589z"
   id="path4" />
<path
   style="fill:#FFFFFF;"
   d="M359.434,369.778H152.566c-5.713,0-10.343-4.63-10.343-10.343V152.566  c0-5.713,4.63-10.343,10.343-10.343h206.869c5.713,0,10.343,4.63,10.343,10.343v206.869  C369.778,365.147,365.147,369.778,359.434,369.778z"
   id="path6" />
<path
   style="fill:#D0D1D3;"
   d="M359.434,142.222H255.426v227.556h104.008c5.713,0,10.343-4.632,10.343-10.343V152.566  C369.778,146.853,365.147,142.222,359.434,142.222z"
   id="path8" />
<rect
   x="163.771"
   y="163.771"
   style="fill:#FFFFFF;"
   width="70.68"
   height="70.68"
   id="rect10" />
<path
   style="fill:#59595B;"
   d="M234.451,243.071h-70.68c-4.761,0-8.62-3.858-8.62-8.62v-70.68c0-4.761,3.858-8.62,8.62-8.62h70.68  c4.761,0,8.62,3.858,8.62,8.62v70.68C243.071,239.213,239.213,243.071,234.451,243.071z M172.391,225.832h53.441v-53.441h-53.441  V225.832z"
   id="path12" />
<rect
   x="194.836"
   y="194.836"
   style="fill:#FFFFFF;"
   width="8.568"
   height="8.568"
   id="rect14" />
<path
   style="fill:#59595B;"
   d="M203.393,212.013h-8.566c-4.761,0-8.62-3.858-8.62-8.62v-8.566c0-4.761,3.858-8.62,8.62-8.62h8.566  c4.761,0,8.62,3.858,8.62,8.62v8.566C212.013,208.155,208.155,212.013,203.393,212.013z"
   id="path16" />


<rect
   x="194.836"
   y="308.596"
   style="fill:#FFFFFF;"
   width="8.568"
   height="8.568"
   id="rect22" />




<g
   id="g44">
</g>
<g
   id="g46">
</g>
<g
   id="g48">
</g>
<g
   id="g50">
</g>
<g
   id="g52">
</g>
<g
   id="g54">
</g>
<g
   id="g56">
</g>
<g
   id="g58">
</g>
<g
   id="g60">
</g>
<g
   id="g62">
</g>
<g
   id="g64">
</g>
<g
   id="g66">
</g>
<g
   id="g68">
</g>
<g
   id="g70">
</g>
<g
   id="g72">
</g>
<path
   inkscape:connector-curvature="0"
   d="M 228.56821,288.51505 216,301.08326 255.91514,341 l 5.92552,-12.5698 -5.92552,-12.56822 z m 0,0"
   id="path6-9"
   style="fill:#324a5e;fill-opacity:1;stroke-width:0.40799668" /><path
   inkscape:connector-curvature="0"
   d="M 338.7971,232.06489 255,315.86198 V 341 l 96.36531,-96.36531 z m 0,0"
   id="path8-1"
   style="fill:#2b3b4e;fill-opacity:1;stroke-width:0.40799668" /></svg>