<?xml version="1.0" encoding="UTF-8" standalone="no"?>
<svg xmlns:cc="http://creativecommons.org/ns#" xmlns:dc="http://purl.org/dc/elements/1.1/"
    xmlns:inkscape="http://www.inkscape.org/namespaces/inkscape"
    xmlns:rdf="http://www.w3.org/1999/02/22-rdf-syntax-ns#"
    xmlns:sodipodi="http://sodipodi.sourceforge.net/DTD/sodipodi-0.dtd" height="921.35522pt"
    id="svg4016" version="1.1" viewBox="0 0 922 921.35523" width="922pt"
    xmlns="http://www.w3.org/2000/svg" inkscape:version="0.92.4 (5da689c313, 2019-01-14)"
    sodipodi:docname="icon.svg">
    <metadata id="metadata4022">
        <rdf:RDF>
            <cc:Work rdf:about="">
                <dc:format>image/svg+xml</dc:format>
                <dc:type rdf:resource="http://purl.org/dc/dcmitype/StillImage" />
                <dc:title></dc:title>
            </cc:Work>
        </rdf:RDF>
    </metadata>
    <defs id="defs4020" />
    <sodipodi:namedview bordercolor="#666666" borderopacity="1" fit-margin-bottom="60"
        fit-margin-left="77" fit-margin-right="77" fit-margin-top="60" gridtolerance="10"
        guidetolerance="10" id="namedview4018" objecttolerance="10" pagecolor="#ffffff"
        showgrid="false" inkscape:current-layer="svg4016" inkscape:cx="1427.0252"
        inkscape:cy="534.69937" inkscape:pagecheckerboard="true" inkscape:pageopacity="0"
        inkscape:pageshadow="2" inkscape:window-height="1017" inkscape:window-maximized="1"
        inkscape:window-width="1920" inkscape:window-x="-8" inkscape:window-y="-8"
        inkscape:zoom="0.47502285" />
    <rect style="fill:#ffd15d;fill-opacity:1;stroke:none;stroke-width:0.88334864" height="920.25"
        id="rect1009" width="920.25" x="-7.1054274e-15" y="1.105207" />
    <path style="fill:#8ec1ed;stroke-width:0.43545213"
        d="m 329.39529,375.24832 c 8.6054,0 15.93276,5.47364 18.6896,13.12932 1.18008,3.27634 -1.27239,6.72948 -4.75426,6.72948 h -87.7693 c -3.48188,0 -5.93478,-3.45314 -4.75427,-6.72948 2.75728,-7.65568 10.0842,-13.12932 18.68961,-13.12932 l 1.1718,-0.003 c 3.60641,-12.49094 15.12499,-21.62542 28.77729,-21.62542 13.6523,0 25.17044,9.13491 28.77729,21.62542 z"
        id="path2785" inkscape:connector-curvature="0" />
    <g style="fill:#605f63;fill-opacity:1" id="g2797"
        transform="matrix(0.43545215,0,0,0.43545215,257.02607,312.44057)">
        <path style="fill:#605f63;fill-opacity:1"
            d="m 406.676,135.182 c -4.356,0 -7.884,-3.53 -7.884,-7.884 0,-4.717 -3.837,-8.555 -8.555,-8.555 -4.718,0 -8.555,3.837 -8.555,8.555 0,4.355 -3.529,7.884 -7.884,7.884 -4.355,0 -7.884,-3.53 -7.884,-7.884 0,-13.412 10.912,-24.324 24.324,-24.324 13.412,0 24.324,10.911 24.324,24.324 -0.002,4.353 -3.53,7.884 -7.886,7.884 z"
            id="path2787" inkscape:connector-curvature="0" />
        <path style="fill:#605f63;fill-opacity:1"
            d="m 439.555,135.182 c -4.356,0 -7.884,-3.53 -7.884,-7.884 0,-4.717 -3.837,-8.555 -8.555,-8.555 -4.716,0 -8.554,3.837 -8.554,8.555 0,4.355 -3.529,7.884 -7.884,7.884 -4.356,0 -7.884,-3.53 -7.884,-7.884 0,-13.412 10.911,-24.324 24.323,-24.324 13.412,0 24.324,10.911 24.324,24.324 -0.002,4.353 -3.533,7.884 -7.886,7.884 z"
            id="path2789" inkscape:connector-curvature="0" />
        <path style="fill:#605f63;fill-opacity:1"
            d="m 75.551,197.432 c -4.356,0 -7.884,-3.53 -7.884,-7.884 0,-4.717 -3.837,-8.554 -8.555,-8.554 -4.718,0 -8.555,3.837 -8.555,8.554 0,4.355 -3.529,7.884 -7.884,7.884 -4.355,0 -7.884,-3.53 -7.884,-7.884 0,-13.412 10.912,-24.323 24.324,-24.323 13.412,0 24.324,10.911 24.324,24.323 -0.002,4.353 -3.532,7.884 -7.886,7.884 z"
            id="path2791" inkscape:connector-curvature="0" />
        <path style="fill:#605f63;fill-opacity:1"
            d="m 108.429,197.432 c -4.356,0 -7.884,-3.53 -7.884,-7.884 0,-4.717 -3.837,-8.554 -8.555,-8.554 -4.718,0 -8.555,3.837 -8.555,8.554 0,4.355 -3.529,7.884 -7.884,7.884 -4.356,0 -7.884,-3.53 -7.884,-7.884 0,-13.412 10.912,-24.323 24.324,-24.323 13.412,0 24.324,10.911 24.324,24.323 -0.002,4.353 -3.531,7.884 -7.886,7.884 z"
            id="path2793" inkscape:connector-curvature="0" />
        <polygon style="fill:#605f63;fill-opacity:1" id="polygon2795"
            points="233.054,361.702 327.901,363.288 285.616,146 233.054,146 " />
    </g>
    <g id="g4852" transform="translate(216.97734,86.366695)">
        <path style="fill:#ffffff;stroke:#000000;stroke-width:0.32165915;stroke-opacity:0.5427136"
            d="m 370.20239,208.07784 h -66.54101 c -1.83763,0 -3.32691,-1.48928 -3.32691,-3.3269 v -66.54135 c 0,-1.83762 1.48928,-3.3269 3.32691,-3.3269 h 66.54133 c 1.83764,0 3.32692,1.48928 3.32692,3.3269 v 66.54135 c 0,1.83729 -1.48961,3.3269 -3.32724,3.3269 z"
            id="path4533-8-7-0-2" inkscape:connector-curvature="0" />
        <path style="fill:#d0d1d3;stroke-width:0.31993049"
            d="m 370.02306,135.07954 h -33.27579 v 72.8011 h 33.27579 c 1.82778,0 3.30909,-1.48188 3.30909,-3.30896 v -66.18283 c 2.8e-4,-1.82773 -1.48131,-3.30931 -3.30909,-3.30931 z"
            id="path4535-8-0-61-5" inkscape:connector-curvature="0" />
        <rect style="fill:#ffffff;stroke-width:0.32165915" height="22.734867" id="rect4537-3-0-7-9"
            width="22.734867" x="307.26553" y="141.81363" />
        <path style="fill:#59595b;stroke-width:0.32165915"
            d="m 330.00047,167.32137 h -22.73488 c -1.53143,0 -2.7727,-1.24095 -2.7727,-2.77269 V 141.8138 c 0,-1.53142 1.24094,-2.7727 2.7727,-2.7727 h 22.73488 c 1.5314,0 2.7727,1.24096 2.7727,2.7727 v 22.73488 c 0,1.53174 -1.24097,2.77269 -2.7727,2.77269 z m -19.96219,-5.54506 h 17.1898 v -17.18982 h -17.1898 z"
            id="path4539-0-3-2-3" inkscape:connector-curvature="0" />
        <rect style="fill:#ffffff;stroke-width:0.32165915" height="2.7559757" id="rect4541-4-8-6-6"
            width="2.7559757" x="317.25787" y="151.80609" />
        <path style="fill:#59595b;stroke-width:0.32165915"
            d="m 320.01037,157.33129 h -2.75535 c -1.53139,0 -2.77269,-1.24096 -2.77269,-2.77269 v -2.75537 c 0,-1.53139 1.24096,-2.77269 2.77269,-2.77269 h 2.75535 c 1.53143,0 2.7727,1.24096 2.7727,2.77269 v 2.75537 c 0,1.53173 -1.24095,2.77269 -2.7727,2.77269 z"
            id="path4543-3-52-7-8" inkscape:connector-curvature="0" />
        <rect style="fill:#ffffff;stroke-width:0.32165915" height="22.734867" id="rect4545-7-7-9-8"
            width="22.734867" x="307.26553" y="178.41138" />
        <path style="fill:#59595b;stroke-width:0.32165915"
            d="m 330.00047,203.91879 h -22.73488 c -1.53143,0 -2.7727,-1.24095 -2.7727,-2.77271 v -22.73486 c 0,-1.53142 1.24094,-2.7727 2.7727,-2.7727 h 22.73488 c 1.5314,0 2.7727,1.24096 2.7727,2.7727 v 22.73486 c 0,1.53176 -1.24097,2.77271 -2.7727,2.77271 z m -19.96219,-5.54508 h 17.1898 v -17.1898 h -17.1898 z"
            id="path4547-2-1-5-6" inkscape:connector-curvature="0" />
        <rect style="fill:#ffffff;stroke-width:0.32165915" height="2.7559757" id="rect4549-2-7-32-9"
            width="2.7559757" x="317.25787" y="188.39798" />
        <path style="fill:#59595b;stroke-width:0.32165915"
            d="m 320.01037,193.929 h -2.75535 c -1.53139,0 -2.77269,-1.24094 -2.77269,-2.77269 v -2.75532 c 0,-1.53143 1.24096,-2.7727 2.77269,-2.7727 h 2.75535 c 1.53143,0 2.7727,1.24097 2.7727,2.7727 v 2.75532 c 0,1.53142 -1.24095,2.77269 -2.7727,2.77269 z"
            id="path4551-2-6-2-9" inkscape:connector-curvature="0" />
        <path style="fill:#272525;stroke-width:0.32165915"
            d="m 366.59818,167.32137 h -22.73484 c -1.53146,0 -2.77273,-1.24095 -2.77273,-2.77269 V 141.8138 c 0,-1.53142 1.24097,-2.7727 2.77273,-2.7727 h 22.73484 c 1.53144,0 2.77271,1.24096 2.77271,2.7727 v 22.73488 c -3.1e-4,1.53174 -1.24127,2.77269 -2.77271,2.77269 z m -19.96248,-5.54506 h 17.18979 V 144.58649 H 346.6357 Z"
            id="path4553-32-6-6-8" inkscape:connector-curvature="0" />
        <rect style="fill:#ffffff;stroke-width:0.32165915" height="2.7559757" id="rect4555-4-1-9-7"
            width="2.7559757" x="353.84985" y="151.80609" />
        <g id="g4569-7-3-4-1" transform="matrix(0.32165918,0,0,0.32165918,254.58718,89.135371)">
            <path style="fill:#272525"
                d="m 317.171,212.013 h -8.566 c -4.761,0 -8.62,-3.858 -8.62,-8.62 v -8.566 c 0,-4.761 3.858,-8.62 8.62,-8.62 h 8.566 c 4.761,0 8.62,3.858 8.62,8.62 v 8.566 c 0,4.762 -3.859,8.62 -8.62,8.62 z"
                id="path4557-4-4-0-3" inkscape:connector-curvature="0" />
            <path style="fill:#272525"
                d="m 341.333,293.064 h -28.444 c -4.761,0 -8.62,-3.858 -8.62,-8.62 0,-4.762 3.858,-8.62 8.62,-8.62 h 28.444 c 4.761,0 8.62,3.858 8.62,8.62 0,4.762 -3.858,8.62 -8.62,8.62 z"
                id="path4559-8-43-4-6" inkscape:connector-curvature="0" />
            <path style="fill:#272525"
                d="m 284.439,293.064 c -2.26,0 -4.484,-0.914 -6.085,-2.517 -1.603,-1.62 -2.534,-3.829 -2.534,-6.103 0,-2.26 0.931,-4.484 2.534,-6.103 1.603,-1.605 3.827,-2.517 6.085,-2.517 2.274,0 4.498,0.912 6.103,2.517 1.603,1.619 2.517,3.827 2.517,6.103 0,2.274 -0.914,4.498 -2.517,6.103 -1.605,1.603 -3.829,2.517 -6.103,2.517 z"
                id="path4561-8-6-5-2" inkscape:connector-curvature="0" />
            <path style="fill:#272525"
                d="m 312.884,349.953 c -2.276,0 -4.499,-0.931 -6.085,-2.536 -1.603,-1.586 -2.534,-3.81 -2.534,-6.084 0,-2.276 0.931,-4.499 2.534,-6.103 1.603,-1.605 3.827,-2.517 6.085,-2.517 2.274,0 4.498,0.912 6.103,2.517 1.603,1.619 2.517,3.843 2.517,6.103 0,2.274 -0.914,4.482 -2.517,6.084 -1.606,1.605 -3.829,2.536 -6.103,2.536 z"
                id="path4563-6-3-1-6" inkscape:connector-curvature="0" />
            <path style="fill:#272525"
                d="m 284.444,349.953 c -4.761,0 -8.62,-3.858 -8.62,-8.62 v -28.444 c 0,-4.761 3.858,-8.62 8.62,-8.62 4.762,0 8.62,3.858 8.62,8.62 v 28.444 c 0,4.762 -3.858,8.62 -8.62,8.62 z"
                id="path4565-4-8-7-6" inkscape:connector-curvature="0" />
            <path style="fill:#272525"
                d="m 341.333,321.508 h -28.444 c -4.761,0 -8.62,-3.858 -8.62,-8.62 0,-4.762 3.858,-8.62 8.62,-8.62 h 28.444 c 4.761,0 8.62,3.858 8.62,8.62 0,4.762 -3.858,8.62 -8.62,8.62 z"
                id="path4567-24-8-4-0" inkscape:connector-curvature="0" />
        </g>
    </g>
    <path style="fill:#3eac92;stroke-width:0.39305085"
        d="m 631.33168,782.02147 c 7.69004,0 13.92422,-6.23418 13.92422,-13.92421 0,-7.69004 -6.23418,-13.92422 -13.92422,-13.92422 -1.32419,0 -2.60357,0.18905 -3.81692,0.53415 -0.60647,-8.91086 -8.02178,-15.95236 -17.0867,-15.95236 -9.01776,0 -16.40319,6.96919 -17.07649,15.8148 -1.05731,-0.25667 -2.1606,-0.3962 -3.29692,-0.3962 -7.69003,0 -13.92422,6.23418 -13.92422,13.92422 0,7.69004 6.23419,13.92421 13.92422,13.92421 h 41.27703 z"
        id="path4034" inkscape:connector-curvature="0" />
    <g style="opacity:0.3" id="g4040"
        transform="matrix(0.39305084,0,0,0.39305084,444.01386,582.86615)">
        <path style="fill:#266659"
            d="m 452.952,417.093 c 1.68,-0.478 3.413,-0.826 5.184,-1.055 -1.906,-2.517 -4.073,-4.826 -6.47,-6.874 0.66,2.561 1.101,5.21 1.286,7.929 z"
            id="path4036" inkscape:connector-curvature="0" />
        <path style="fill:#266659"
            d="m 497.515,444.827 c 0.371,2.056 0.575,4.172 0.575,6.335 0,19.565 -15.861,35.426 -35.426,35.426 H 357.646 c -7.836,0 -15.073,-2.549 -20.941,-6.856 2.987,16.54 17.449,29.092 34.851,29.092 h 105.018 c 19.565,0 35.426,-15.861 35.426,-35.426 0,-11.731 -5.704,-22.124 -14.485,-28.571 z"
            id="path4038" inkscape:connector-curvature="0" />
    </g>
    <g id="g4894" transform="translate(64.32085,96.41053)">
        <path style="fill:#ffffff;stroke:#000000;stroke-width:0.30700496;stroke-opacity:0.5427136"
            d="m 267.89436,390.04346 h -63.50952 c -1.75391,0 -3.17535,-1.42143 -3.17535,-3.17534 v -63.50984 c 0,-1.7539 1.42144,-3.17535 3.17535,-3.17535 h 63.50984 c 1.7539,0 3.17534,1.42145 3.17534,3.17535 v 63.50984 c 0,1.7536 -1.42176,3.17534 -3.17566,3.17534 z"
            id="path4533-8-7" inkscape:connector-curvature="0" />
        <path style="fill:#d0d1d3;stroke-width:0.30535504"
            d="m 267.72319,320.37082 h -31.7598 v 69.48443 h 31.7598 c 1.7445,0 3.15832,-1.41437 3.15832,-3.15823 v -63.16766 c 2.9e-4,-1.74446 -1.41382,-3.15854 -3.15832,-3.15854 z"
            id="path4535-8-0" inkscape:connector-curvature="0" />
        <rect style="fill:#ffffff;stroke-width:0.30700496" height="21.69911" id="rect4537-3-0"
            width="21.69911" x="207.82478" y="326.79828" />
        <path style="fill:#59595b;stroke-width:0.30700496"
            d="m 229.52394,351.14377 h -21.69909 c -1.46167,0 -2.64639,-1.18442 -2.64639,-2.64637 v -21.69911 c 0,-1.46167 1.18442,-2.64639 2.64639,-2.64639 h 21.69909 c 1.46166,0 2.64641,1.18443 2.64641,2.64639 v 21.69911 c 0,1.46195 -1.18444,2.64637 -2.64641,2.64637 z m -19.05272,-5.29245 h 16.40665 v -16.40666 h -16.40665 z"
            id="path4539-0-3" inkscape:connector-curvature="0" />
        <rect style="fill:#ffffff;stroke-width:0.30700496" height="2.6304185" id="rect4541-4-8"
            width="2.6304185" x="217.36194" y="336.33545" />
        <path style="fill:#59595b;stroke-width:0.30700496"
            d="m 219.989,341.60883 h -2.62982 c -1.46164,0 -2.64639,-1.18444 -2.64639,-2.64638 v -2.62981 c 0,-1.46164 1.18444,-2.64639 2.64639,-2.64639 h 2.62982 c 1.46163,0 2.64637,1.18442 2.64637,2.64639 v 2.62981 c 0,1.46194 -1.1844,2.64638 -2.64637,2.64638 z"
            id="path4543-3-52" inkscape:connector-curvature="0" />
        <rect style="fill:#ffffff;stroke-width:0.30700496" height="21.69911" id="rect4545-7-7"
            width="21.69911" x="207.82478" y="361.72864" />
        <path style="fill:#59595b;stroke-width:0.30700496"
            d="m 229.52394,386.0739 h -21.69909 c -1.46167,0 -2.64639,-1.18443 -2.64639,-2.64639 v -21.69912 c 0,-1.46166 1.18442,-2.64638 2.64639,-2.64638 h 21.69909 c 1.46166,0 2.64641,1.18442 2.64641,2.64638 v 21.69912 c 0,1.46196 -1.18444,2.64639 -2.64641,2.64639 z m -19.05272,-5.29246 h 16.40665 v -16.40666 h -16.40665 z"
            id="path4547-2-1" inkscape:connector-curvature="0" />
        <rect style="fill:#ffffff;stroke-width:0.30700496" height="2.6304185" id="rect4549-2-7"
            width="2.6304185" x="217.36194" y="371.26035" />
        <path style="fill:#59595b;stroke-width:0.30700496"
            d="m 219.989,376.53922 h -2.62982 c -1.46164,0 -2.64639,-1.18442 -2.64639,-2.64637 v -2.6298 c 0,-1.46167 1.18444,-2.64639 2.64639,-2.64639 h 2.62982 c 1.46163,0 2.64637,1.18444 2.64637,2.64639 v 2.6298 c 0,1.46165 -1.1844,2.64637 -2.64637,2.64637 z"
            id="path4551-2-6" inkscape:connector-curvature="0" />
        <path style="fill:#272525;stroke-width:0.30700496"
            d="m 264.45436,351.14377 h -21.6991 c -1.46165,0 -2.64639,-1.18442 -2.64639,-2.64637 v -21.69911 c 0,-1.46167 1.18442,-2.64639 2.64639,-2.64639 h 21.6991 c 1.46167,0 2.64639,1.18443 2.64639,2.64639 v 21.69911 c -2.9e-4,1.46195 -1.18472,2.64637 -2.64639,2.64637 z m -19.05302,-5.29245 h 16.40664 v -16.40666 h -16.40664 z"
            id="path4553-32-6" inkscape:connector-curvature="0" />
        <rect style="fill:#ffffff;stroke-width:0.30700496" height="2.6304185" id="rect4555-4-1"
            width="2.6304185" x="252.28683" y="336.33545" />
        <g id="g4569-7-3" transform="matrix(0.30700496,0,0,0.30700496,157.54634,276.51976)">
            <path style="fill:#272525"
                d="m 317.171,212.013 h -8.566 c -4.761,0 -8.62,-3.858 -8.62,-8.62 v -8.566 c 0,-4.761 3.858,-8.62 8.62,-8.62 h 8.566 c 4.761,0 8.62,3.858 8.62,8.62 v 8.566 c 0,4.762 -3.859,8.62 -8.62,8.62 z"
                id="path4557-4-4" inkscape:connector-curvature="0" />
            <path style="fill:#272525"
                d="m 341.333,293.064 h -28.444 c -4.761,0 -8.62,-3.858 -8.62,-8.62 0,-4.762 3.858,-8.62 8.62,-8.62 h 28.444 c 4.761,0 8.62,3.858 8.62,8.62 0,4.762 -3.858,8.62 -8.62,8.62 z"
                id="path4559-8-43" inkscape:connector-curvature="0" />
            <path style="fill:#272525"
                d="m 284.439,293.064 c -2.26,0 -4.484,-0.914 -6.085,-2.517 -1.603,-1.62 -2.534,-3.829 -2.534,-6.103 0,-2.26 0.931,-4.484 2.534,-6.103 1.603,-1.605 3.827,-2.517 6.085,-2.517 2.274,0 4.498,0.912 6.103,2.517 1.603,1.619 2.517,3.827 2.517,6.103 0,2.274 -0.914,4.498 -2.517,6.103 -1.605,1.603 -3.829,2.517 -6.103,2.517 z"
                id="path4561-8-6" inkscape:connector-curvature="0" />
            <path style="fill:#272525"
                d="m 312.884,349.953 c -2.276,0 -4.499,-0.931 -6.085,-2.536 -1.603,-1.586 -2.534,-3.81 -2.534,-6.084 0,-2.276 0.931,-4.499 2.534,-6.103 1.603,-1.605 3.827,-2.517 6.085,-2.517 2.274,0 4.498,0.912 6.103,2.517 1.603,1.619 2.517,3.843 2.517,6.103 0,2.274 -0.914,4.482 -2.517,6.084 -1.606,1.605 -3.829,2.536 -6.103,2.536 z"
                id="path4563-6-3" inkscape:connector-curvature="0" />
            <path style="fill:#272525"
                d="m 284.444,349.953 c -4.761,0 -8.62,-3.858 -8.62,-8.62 v -28.444 c 0,-4.761 3.858,-8.62 8.62,-8.62 4.762,0 8.62,3.858 8.62,8.62 v 28.444 c 0,4.762 -3.858,8.62 -8.62,8.62 z"
                id="path4565-4-8" inkscape:connector-curvature="0" />
            <path style="fill:#272525"
                d="m 341.333,321.508 h -28.444 c -4.761,0 -8.62,-3.858 -8.62,-8.62 0,-4.762 3.858,-8.62 8.62,-8.62 h 28.444 c 4.761,0 8.62,3.858 8.62,8.62 0,4.762 -3.858,8.62 -8.62,8.62 z"
                id="path4567-24-8" inkscape:connector-curvature="0" />
        </g>
    </g>
    <polygon style="fill:#858585;fill-opacity:1" id="polygon2807"
        points="83.948,366.824 83.948,358.67 98.464,276.277 136.827,276.277 160.271,328.076 181.411,177.537 233.054,146 233.054,366.824 "
        transform="matrix(0.43545215,0,0,0.43545215,257.02607,312.44057)" />
    <path style="fill:#8ec1ed;stroke-width:0.50302708"
        d="m 406.31836,139.20851 c 5.3009,0 9.59826,-4.29736 9.59826,-9.59826 0,-5.3009 -4.29736,-9.59826 -9.59826,-9.59826 -1.59761,0 -3.10317,0.39237 -4.42814,1.08302 -1.31894,-2.61222 -3.52622,-4.69878 -6.22697,-5.85976 0,-0.0241 0.002,-0.0472 0.002,-0.0714 0,-13.27942 -10.76528,-24.044194 -24.04419,-24.044194 -10.99717,0 -20.26344,7.385942 -23.12566,17.465104 -6.3316,1.11118 -11.33169,6.07907 -12.48916,12.39407 -1.26964,-0.61922 -2.69471,-0.96732 -4.20178,-0.96732 -5.30191,5.1e-4 -9.59927,4.29787 -9.59927,9.59877 0,5.30089 4.29736,9.59826 9.59827,9.59826 z"
        id="path1779" inkscape:connector-curvature="0" />
    <path style="fill:#6da5ca;fill-opacity:1;stroke-width:0.43545213"
        d="m 422.15388,532.10528 h 25.09641 c 5.47102,0 9.9466,-4.47645 9.9466,-9.9466 v 0 c 0,-5.47102 -4.47645,-9.9466 -9.9466,-9.9466 h -8.01101 l -8.73343,5.8e-4 h -9.37615 c -6.40289,0 -11.64182,-5.23848 -11.64182,-11.64181 v 0 c 0,-6.40289 5.23849,-11.64181 11.64182,-11.64181 h 9.37615 8.73343 30.79169 c 5.47102,0 9.9466,-4.47645 9.9466,-9.9466 v 0 c 0,-5.47102 -4.47645,-9.9466 -9.9466,-9.9466 H 422.15388 314.84976 266.97267 c -5.47015,-5.8e-4 -9.9466,4.47543 -9.9466,9.94602 v 0 c 0,5.47102 4.47645,9.9466 9.9466,9.9466 h 30.79169 4.35975 9.37572 c 6.40289,0 11.64138,5.23805 11.64138,11.64138 v 0 c 0,6.40288 -5.23849,11.64137 -11.64138,11.64137 h -9.37572 -4.35975 -8.01058 c -5.47102,0 -9.94659,4.47645 -9.94659,9.9466 v 0 c 0,5.47102 4.47644,9.9466 9.94659,9.9466 h 25.09642 107.30368 z"
        id="path2809" inkscape:connector-curvature="0" />
    <g id="g2817" transform="matrix(0.43545215,0,0,0.43545215,257.02607,312.44057)">
        <path style="fill:#3c66b1"
            d="M 304.934,409.549 H 189.169 c -4.356,0 -7.884,-3.53 -7.884,-7.884 0,-4.355 3.529,-7.884 7.884,-7.884 h 115.767 c 4.356,0 7.884,3.53 7.884,7.884 0,4.354 -3.53,7.884 -7.886,7.884 z"
            id="path2811" inkscape:connector-curvature="0" />
        <path style="fill:#3c66b1"
            d="M 282.225,439.918 H 220.25 c -4.356,0 -7.884,-3.53 -7.884,-7.884 0,-4.355 3.529,-7.884 7.884,-7.884 h 61.975 c 4.356,0 7.884,3.53 7.884,7.884 0,4.354 -3.528,7.884 -7.884,7.884 z"
            id="path2813" inkscape:connector-curvature="0" />
        <path style="fill:#3c66b1"
            d="M 310.241,469.47 H 184.89 c -4.356,0 -7.884,-3.53 -7.884,-7.884 0,-4.355 3.529,-7.884 7.884,-7.884 h 125.35 c 4.356,0 7.884,3.53 7.884,7.884 10e-4,4.354 -3.53,7.884 -7.883,7.884 z"
            id="path2815" inkscape:connector-curvature="0" />
    </g>
    <path style="fill:#3a3a3a;fill-opacity:1;stroke-width:1.48661172"
        d="m 275.01758,294.32158 c -72.25166,0 -130.82227,58.57062 -130.82227,130.82226 0,72.25165 58.57061,130.8208 130.82227,130.8208 h 321.10693 c 59.08702,0.0639 106.97224,47.94914 107.03613,107.03613 v 11.89307 c -0.0639,59.08701 -47.94911,106.97223 -107.03613,107.03613 l -369.04162,3.1e-4 c 0,0 8.40052,6.40921 18.52895,13.31732 9.77072,6.51824 15.96833,10.35722 16.20874,10.46818 l 334.30393,3.2e-4 C 668.34132,805.629 726.85968,747.11065 726.94677,674.89384 V 663.00077 C 726.85968,590.78398 668.34132,532.26561 596.12451,532.17851 H 275.01758 c -59.11605,0 -107.03614,-47.91862 -107.03614,-107.03467 0,-59.11603 47.92009,-107.03613 107.03614,-107.03613 h 416.25 v -23.78613 z"
        id="path3980" inkscape:connector-curvature="0" sodipodi:nodetypes="ssscccccccccccsssccs" />
    <path style="fill:#7d4739;stroke-width:1.48661172"
        d="m 521.3737,703.48956 h 23.78579 v 59.46446 H 521.3737 Z m 0,0" id="path3982"
        inkscape:connector-curvature="0" />
    <path style="fill:#7d4739;stroke-width:1.48661172"
        d="m 465.30319,211.0711 h 23.78578 v 59.46447 h -23.78578 z m 0,0" id="path3984"
        inkscape:connector-curvature="0" />
    <path style="fill:#fd8468;fill-opacity:1;stroke-width:1.48661172"
        d="m 760.99668,217.01754 c 14.43059,-24.98787 8.83256,-56.73515 -13.27498,-75.28875 -22.10753,-18.54782 -54.33681,-18.54782 -76.44436,0 -22.10754,18.5536 -27.70556,50.30088 -13.27497,75.28875 l 0.0581,0.0987 c 1.38788,2.3809 2.93837,4.6689 4.63984,6.83493 l 37.5718,44.60996 c 2.66545,2.66546 3.7804,5.34252 9.2739,5.34252 3.76298,-0.20907 7.20658,-2.18928 9.27971,-5.34252 l 37.60082,-44.87127 c 1.60275,-2.05572 3.06033,-4.21594 4.36692,-6.4691 z m 0,0"
        id="path3992" inkscape:connector-curvature="0" />
    <path style="fill:#3a3a3a;fill-opacity:1;stroke-width:0.87955707"
        d="m 735.86169,306.73825 c 0,-13.46099 -10.914,-24.375 -24.375,-24.375 -13.461,0 -24.375,10.91401 -24.375,24.375 0,13.461 10.914,24.375 24.375,24.375 13.461,0 24.375,-10.914 24.375,-24.375 z m 0,0"
        id="path3994" inkscape:connector-curvature="0" />
    <path style="fill:#fc6f58;fill-opacity:1;stroke-width:1.48661172"
        d="m 733.2737,187.2853 c 0,13.13563 -10.65018,23.7858 -23.78579,23.7858 -13.13561,0 -23.78579,-10.65017 -23.78579,-23.7858 0,-13.13561 10.65018,-23.78578 23.78579,-23.78578 13.13561,0 23.78579,10.65017 23.78579,23.78578 z m 0,0"
        id="path3996" inkscape:connector-curvature="0" />
    <path style="fill:#8ec1ed;stroke-width:0.50302708"
        d="m 540.49259,165.92548 c 5.30089,0 9.59825,-4.29736 9.59825,-9.59825 0,-5.30089 -4.29736,-9.59826 -9.59825,-9.59826 -1.59762,0 -3.10317,0.39237 -4.42815,1.08302 -1.31894,-2.61222 -3.52622,-4.69877 -6.22697,-5.85976 0,-0.0241 9e-4,-0.0472 9e-4,-0.0714 1.7e-4,-13.27942 -10.76511,-24.04419 -24.04402,-24.04419 -10.99717,0 -20.26344,7.38594 -23.12566,17.4651 -6.3316,1.11118 -11.33169,6.07907 -12.48915,12.39407 -1.26964,-0.61921 -2.69472,-0.96732 -4.20179,-0.96732 -5.3009,0 -9.59826,4.29737 -9.59826,9.59826 0,5.30089 4.29736,9.59825 9.59826,9.59825 h 74.5144 z"
        id="path1757" inkscape:connector-curvature="0" />
    <polygon style="fill:#c6c3cb" id="polygon1747"
        points="20.852,452.51 257.315,38.479 493.777,452.51 "
        transform="matrix(0.50302705,0,0,0.50302705,305.50709,40.644022)" />
    <polygon style="fill:#dfdfe2" id="polygon1749"
        points="255.77,127.189 281.566,149.895 306.631,124.831 257.315,38.479 207.997,124.831 233.063,149.895 "
        transform="matrix(0.50302705,0,0,0.50302705,305.50709,40.644022)" />
    <g id="g1769" transform="matrix(0.50302705,0,0,0.50302705,305.50709,40.644022)">
        <rect style="fill:#836948" height="60.811001" id="rect1763" width="47.167999" x="66.111"
            y="443.79199" />
        <rect style="fill:#836948" height="60.811001" id="rect1765" width="47.167999" x="233.73"
            y="443.79199" />
        <rect style="fill:#836948" height="60.811001" id="rect1767" width="47.167999" x="406.82199"
            y="443.79199" />
    </g>
    <g id="g1755" transform="matrix(0.50302705,0,0,0.50302705,305.50709,40.644022)">
        <path style="fill:#77757e"
            d="m 208.214,249.821 c -2.028,0 -3.974,-0.805 -5.407,-2.239 l -20.776,-20.776 c -2.986,-2.988 -2.986,-7.829 0,-10.815 2.986,-2.985 7.829,-2.985 10.814,0 l 15.369,15.369 14.908,-14.909 c 2.986,-2.985 7.829,-2.985 10.814,0 2.986,2.988 2.986,7.829 0,10.815 l -20.315,20.316 c -1.434,1.434 -3.379,2.239 -5.407,2.239 z"
            id="path1751" inkscape:connector-curvature="0" />
        <path style="fill:#77757e"
            d="m 305.77,249.821 c -2.028,0 -3.974,-0.805 -5.407,-2.239 l -20.776,-20.776 c -2.986,-2.988 -2.986,-7.829 0,-10.815 2.986,-2.985 7.829,-2.985 10.814,0 l 15.369,15.369 14.908,-14.909 c 2.986,-2.985 7.829,-2.985 10.814,0 2.986,2.988 2.986,7.829 0,10.815 l -20.315,20.316 c -1.434,1.434 -3.379,2.239 -5.407,2.239 z"
            id="path1753" inkscape:connector-curvature="0" />
    </g>
    <g id="g1777" transform="matrix(0.50302705,0,0,0.50302705,305.50709,40.644022)">
        <rect style="fill:#564531" height="25.593" id="rect1771" width="47.167999" x="66.111"
            y="443.79199" />
        <rect style="fill:#564531" height="25.593" id="rect1773" width="47.167999" x="233.73"
            y="443.79199" />
        <rect style="fill:#564531" height="25.593" id="rect1775" width="47.167999" x="406.82199"
            y="443.79199" />
    </g>
    <g style="opacity:0.28999999" id="g1761"
        transform="matrix(0.50302705,0,0,0.50302705,305.50709,40.644022)">
        <path style="fill:#77757e"
            d="M 493.776,452.51 363.608,224.594 C 299.16,307.247 167.175,330.294 87.103,336.509 L 20.852,452.51 Z"
            id="path1759" inkscape:connector-curvature="0" />
    </g>
    <g id="g1787" transform="matrix(0.50302705,0,0,0.50302705,305.50709,40.644022)">
        <polygon style="fill:#33a854" id="polygon1781"
            points="130.103,338.803 149.407,338.803 90.388,237.026 31.369,338.803 50.674,338.803 16.962,396.94 38.254,396.94 6.031,452.51 174.745,452.51 142.522,396.94 163.815,396.94 " />
        <polygon style="fill:#33a854" id="polygon1783"
            points="298.364,338.803 317.669,338.803 258.65,237.026 199.63,338.803 218.935,338.803 185.223,396.94 206.516,396.94 174.292,452.51 343.007,452.51 310.783,396.94 332.076,396.94 " />
        <polygon style="fill:#33a854" id="polygon1785"
            points="467.358,338.803 486.662,338.803 427.643,237.026 368.624,338.803 387.929,338.803 354.216,396.94 375.51,396.94 343.286,452.51 512,452.51 479.777,396.94 501.071,396.94 " />
    </g>
    <g id="g1795" transform="matrix(0.50302705,0,0,0.50302705,305.50709,40.644022)">
        <polygon style="opacity:0.28000004;fill:#266659;enable-background:new" id="polygon1789"
            points="469.295,372.545 448.001,372.545 480.224,428.115 357.433,428.115 343.287,452.51 512,452.51 479.777,396.94 501.071,396.94 467.358,338.803 486.662,338.803 427.643,237.026 418.829,252.226 454.887,314.407 435.582,314.407 " />
        <polygon style="opacity:0.28000004;fill:#266659;enable-background:new" id="polygon1791"
            points="298.966,372.545 277.673,372.545 309.896,428.115 187.104,428.115 172.958,452.51 341.672,452.51 309.447,396.94 330.741,396.94 297.028,338.803 316.334,338.803 257.315,237.026 248.5,252.226 284.558,314.407 265.254,314.407 " />
        <polygon style="opacity:0.28000004;fill:#266659;enable-background:new" id="polygon1793"
            points="131.347,372.545 110.053,372.545 142.276,428.115 19.485,428.115 5.338,452.51 174.052,452.51 141.828,396.94 163.122,396.94 129.409,338.803 148.714,338.803 89.695,237.026 80.88,252.226 116.938,314.407 97.634,314.407 " />
    </g>
    <g id="g1797" transform="matrix(0.50302705,0,0,0.50302705,305.50709,40.644022)" />
    <g id="g1799" transform="matrix(0.50302705,0,0,0.50302705,305.50709,40.644022)" />
    <g id="g1801" transform="matrix(0.50302705,0,0,0.50302705,305.50709,40.644022)" />
    <g id="g1803" transform="matrix(0.50302705,0,0,0.50302705,305.50709,40.644022)" />
    <g id="g1805" transform="matrix(0.50302705,0,0,0.50302705,305.50709,40.644022)" />
    <g id="g1807" transform="matrix(0.50302705,0,0,0.50302705,305.50709,40.644022)" />
    <g id="g1809" transform="matrix(0.50302705,0,0,0.50302705,305.50709,40.644022)" />
    <g id="g1811" transform="matrix(0.50302705,0,0,0.50302705,305.50709,40.644022)" />
    <g id="g1813" transform="matrix(0.50302705,0,0,0.50302705,305.50709,40.644022)" />
    <g id="g1815" transform="matrix(0.50302705,0,0,0.50302705,305.50709,40.644022)" />
    <g id="g1817" transform="matrix(0.50302705,0,0,0.50302705,305.50709,40.644022)" />
    <g id="g1819" transform="matrix(0.50302705,0,0,0.50302705,305.50709,40.644022)" />
    <g id="g1821" transform="matrix(0.50302705,0,0,0.50302705,305.50709,40.644022)" />
    <g id="g1823" transform="matrix(0.50302705,0,0,0.50302705,305.50709,40.644022)" />
    <g id="g1825" transform="matrix(0.50302705,0,0,0.50302705,305.50709,40.644022)" />
    <path style="fill:#836948;stroke-width:0.43545213"
        d="m 419.53551,474.06952 c -0.5687,0 -1.14481,-0.14152 -1.67606,-0.43937 -1.65341,-0.92751 -2.24214,-3.02073 -1.31463,-4.6737 13.61136,-24.27124 4.97243,-52.65836 4.8836,-52.94271 -0.56566,-1.808 0.43937,-3.73444 2.24693,-4.3027 1.80582,-0.5674 3.7327,0.43327 4.3027,2.24083 0.40062,1.27196 9.64962,31.4501 -5.44489,58.36322 -0.62967,1.12259 -1.79581,1.75443 -2.99765,1.75443 z"
        id="path2777" inkscape:connector-curvature="0" />
    <g id="g2783" transform="matrix(0.43545215,0,0,0.43545215,257.02607,312.44057)">
        <path style="fill:#610012"
            d="m 373.205,274.997 c -10.887,0 -19.745,-8.857 -19.745,-19.745 0,-10.888 8.858,-19.745 19.745,-19.745 10.887,0 19.745,8.857 19.745,19.745 -10e-4,10.888 -8.858,19.745 -19.745,19.745 z"
            id="path2779" inkscape:connector-curvature="0" />
        <path style="fill:#610012"
            d="m 403.755,274.997 c -10.887,0 -19.744,-8.857 -19.744,-19.745 0,-10.888 8.857,-19.745 19.744,-19.745 10.887,0 19.745,8.857 19.745,19.745 10e-4,10.888 -8.857,19.745 -19.745,19.745 z"
            id="path2781" inkscape:connector-curvature="0" />
    </g>
    <g id="g2805" transform="matrix(0.43545215,0,0,0.43545215,257.02607,312.44057)">
        <path style="fill:#b6e892"
            d="m 364.411,249.939 c -3.077,0 -6.233,-0.449 -9.347,-1.554 -15.732,-5.581 -21.801,-24.874 -22.441,-27.056 -0.959,-3.266 0.287,-6.779 3.089,-8.711 1.871,-1.289 18.746,-12.448 34.474,-6.865 h 0.001 c 15.733,5.581 21.802,24.874 22.442,27.056 0.959,3.266 -0.287,6.779 -3.089,8.711 -1.501,1.036 -12.656,8.419 -25.129,8.419 z M 350.165,222.65 c 2.206,4.293 5.704,9.289 10.172,10.874 4.466,1.584 10.329,-0.088 14.752,-2.035 -2.206,-4.293 -5.704,-9.289 -10.173,-10.874 h 10e-4 c -4.467,-1.583 -10.329,0.09 -14.752,2.035 z"
            id="path2799" inkscape:connector-curvature="0" />
        <path style="fill:#b6e892"
            d="m 403.682,248.357 c -11.074,0 -20.946,-5.159 -22.397,-5.95 -2.988,-1.631 -4.589,-4.996 -3.974,-8.344 0.411,-2.236 4.45,-22.053 19.52,-29.232 v 0 c 15.07,-7.179 33.006,2.172 35,3.262 2.988,1.631 4.589,4.996 3.974,8.344 -0.411,2.236 -4.45,22.053 -19.52,29.232 -4.114,1.962 -8.444,2.688 -12.603,2.688 z m -9.087,-17.428 c 4.599,1.48 10.621,2.546 14.909,0.504 4.332,-2.063 7.288,-7.377 9.018,-11.861 -4.599,-1.48 -10.621,-2.548 -14.909,-0.505 -4.33,2.063 -7.286,7.376 -9.018,11.862 z"
            id="path2801" inkscape:connector-curvature="0" />
        <path style="fill:#b6e892"
            d="m 385.011,230.705 c -1.35,0 -2.707,-0.346 -3.934,-1.052 -1.97,-1.135 -19.296,-11.567 -21.023,-28.172 v 0 c -1.728,-16.605 13.081,-30.38 14.777,-31.896 2.536,-2.27 6.244,-2.655 9.194,-0.957 1.97,1.135 19.297,11.567 21.024,28.173 1.726,16.605 -13.083,30.38 -14.778,31.896 -1.482,1.324 -3.364,2.008 -5.26,2.008 z m -9.274,-30.856 c 0.496,4.772 4.515,9.333 8.164,12.464 2.932,-3.838 5.951,-9.158 5.461,-13.882 -0.497,-4.78 -4.532,-9.351 -8.185,-12.482 -2.949,3.833 -5.936,9.115 -5.44,13.9 z"
            id="path2803" inkscape:connector-curvature="0" />
    </g>
    <g id="g2825" transform="matrix(0.43545215,0,0,0.43545215,257.02607,312.44057)">
        <path style="fill:#b6e892"
            d="m 367.552,213.184 c 12.392,4.397 17.512,21.845 17.512,21.845 0,0 -14.971,10.323 -27.363,5.926 -12.392,-4.397 -17.513,-21.845 -17.513,-21.845 0,0 14.972,-10.322 27.364,-5.926 z"
            id="path2819" inkscape:connector-curvature="0" />
        <path style="fill:#b6e892"
            d="m 400.224,211.95 c 11.871,-5.655 27.83,3.063 27.83,3.063 0,0 -3.287,17.885 -15.159,23.538 -11.871,5.655 -27.83,-3.063 -27.83,-3.063 0,0 3.288,-17.885 15.159,-23.538 z"
            id="path2821" inkscape:connector-curvature="0" />
        <path style="fill:#b6e892"
            d="m 367.896,200.665 c -1.361,-13.079 12.192,-25.204 12.192,-25.204 0,0 15.756,9.077 17.117,22.156 1.361,13.079 -12.192,25.204 -12.192,25.204 0,0 -15.757,-9.078 -17.117,-22.156 z"
            id="path2823" inkscape:connector-curvature="0" />
    </g>
    <g id="g2827" transform="matrix(0.43545215,0,0,0.43545215,243.17839,306.97656)" />
    <g id="g2829" transform="matrix(0.43545215,0,0,0.43545215,243.17839,306.97656)" />
    <g id="g2831" transform="matrix(0.43545215,0,0,0.43545215,243.17839,306.97656)" />
    <g id="g2833" transform="matrix(0.43545215,0,0,0.43545215,243.17839,306.97656)" />
    <g id="g2835" transform="matrix(0.43545215,0,0,0.43545215,243.17839,306.97656)" />
    <g id="g2837" transform="matrix(0.43545215,0,0,0.43545215,243.17839,306.97656)" />
    <g id="g2839" transform="matrix(0.43545215,0,0,0.43545215,243.17839,306.97656)" />
    <g id="g2841" transform="matrix(0.43545215,0,0,0.43545215,243.17839,306.97656)" />
    <g id="g2843" transform="matrix(0.43545215,0,0,0.43545215,243.17839,306.97656)" />
    <g id="g2845" transform="matrix(0.43545215,0,0,0.43545215,243.17839,306.97656)" />
    <g id="g2847" transform="matrix(0.43545215,0,0,0.43545215,243.17839,306.97656)" />
    <g id="g2849" transform="matrix(0.43545215,0,0,0.43545215,243.17839,306.97656)" />
    <g id="g2851" transform="matrix(0.43545215,0,0,0.43545215,243.17839,306.97656)" />
    <g id="g2853" transform="matrix(0.43545215,0,0,0.43545215,243.17839,306.97656)" />
    <g id="g2855" transform="matrix(0.43545215,0,0,0.43545215,243.17839,306.97656)" />
    <polygon style="fill:#c70024" id="polygon3992"
        points="268.621,49.996 268.621,22.976 248.822,3.177 229.023,22.976 229.023,49.996 "
        transform="matrix(0.39305084,0,0,0.39305084,444.01386,582.86615)" />
    <g id="g4873" transform="matrix(1.3398593,0,0,1.3398593,-54.481158,-128.86984)">
        <path style="fill:#ffffff;stroke:#000000;stroke-width:0.21907973;stroke-opacity:0.5427136"
            d="m 404.99565,679.88732 h -45.3206 c -1.2516,0 -2.26594,-1.01434 -2.26594,-2.26593 v -45.32083 c 0,-1.25159 1.01434,-2.26593 2.26594,-2.26593 h 45.32082 c 1.2516,0 2.26594,1.01434 2.26594,2.26593 v 45.32083 c 0,1.25137 -1.01456,2.26593 -2.26616,2.26593 z"
            id="path4533-8-7-0" inkscape:connector-curvature="0" />
        <path style="fill:#d0d1d3;stroke-width:0.21790236"
            d="m 404.87351,630.1687 h -22.6639 v 49.58431 h 22.6639 c 1.24489,0 2.2538,-1.0093 2.2538,-2.25371 v -45.07665 c 1.9e-4,-1.24485 -1.00891,-2.25395 -2.2538,-2.25395 z"
            id="path4535-8-0-61" inkscape:connector-curvature="0" />
        <rect style="fill:#ffffff;stroke-width:0.21907973" height="15.484555" id="rect4537-3-0-7"
            width="15.484555" x="362.12982" y="634.75525" />
        <path style="fill:#59595b;stroke-width:0.21907973"
            d="m 377.61441,652.12838 h -15.48456 c -1.04305,0 -1.88847,-0.8452 -1.88847,-1.88846 v -15.48456 c 0,-1.04304 0.8452,-1.88847 1.88847,-1.88847 h 15.48456 c 1.04303,0 1.88847,0.84521 1.88847,1.88847 v 15.48456 c 0,1.04326 -0.84522,1.88846 -1.88847,1.88846 z m -13.5961,-3.7767 h 11.70785 v -11.70786 h -11.70785 z"
            id="path4539-0-3-2" inkscape:connector-curvature="0" />
        <rect style="fill:#ffffff;stroke-width:0.21907973" height="1.8770752" id="rect4541-4-8-6"
            width="1.8770752" x="368.93555" y="641.56104" />
        <path style="fill:#59595b;stroke-width:0.21907973"
            d="m 370.81023,645.32421 h -1.87665 c -1.04302,0 -1.88846,-0.84521 -1.88846,-1.88846 v -1.87666 c 0,-1.04302 0.84521,-1.88846 1.88846,-1.88846 h 1.87665 c 1.04304,0 1.88846,0.84521 1.88846,1.88846 v 1.87666 c 0,1.04325 -0.8452,1.88846 -1.88846,1.88846 z"
            id="path4543-3-52-7" inkscape:connector-curvature="0" />
        <rect style="fill:#ffffff;stroke-width:0.21907973" height="15.484555" id="rect4545-7-7-9"
            width="15.484555" x="362.12982" y="659.6817" />
        <path style="fill:#59595b;stroke-width:0.21907973"
            d="m 377.61441,677.05462 h -15.48456 c -1.04305,0 -1.88847,-0.8452 -1.88847,-1.88847 V 659.6816 c 0,-1.04304 0.8452,-1.88847 1.88847,-1.88847 h 15.48456 c 1.04303,0 1.88847,0.84521 1.88847,1.88847 v 15.48455 c 0,1.04327 -0.84522,1.88847 -1.88847,1.88847 z m -13.5961,-3.77671 h 11.70785 v -11.70785 h -11.70785 z"
            id="path4547-2-1-5" inkscape:connector-curvature="0" />
        <rect style="fill:#ffffff;stroke-width:0.21907973" height="1.8770752" id="rect4549-2-7-32"
            width="1.8770752" x="368.93555" y="666.48352" />
        <path style="fill:#59595b;stroke-width:0.21907973"
            d="m 370.81023,670.25065 h -1.87665 c -1.04302,0 -1.88846,-0.8452 -1.88846,-1.88846 v -1.87663 c 0,-1.04305 0.84521,-1.88847 1.88846,-1.88847 h 1.87665 c 1.04304,0 1.88846,0.84522 1.88846,1.88847 v 1.87663 c 0,1.04304 -0.8452,1.88846 -1.88846,1.88846 z"
            id="path4551-2-6-2" inkscape:connector-curvature="0" />
        <path style="fill:#272525;stroke-width:0.21907973"
            d="m 402.54085,652.12838 h -15.48454 c -1.04306,0 -1.88848,-0.8452 -1.88848,-1.88846 v -15.48456 c 0,-1.04304 0.84521,-1.88847 1.88848,-1.88847 h 15.48454 c 1.04305,0 1.88847,0.84521 1.88847,1.88847 v 15.48456 c -2.1e-4,1.04326 -0.84542,1.88846 -1.88847,1.88846 z m -13.5963,-3.7767 h 11.70784 v -11.70786 h -11.70784 z"
            id="path4553-32-6-6" inkscape:connector-curvature="0" />
        <rect style="fill:#ffffff;stroke-width:0.21907973" height="1.8770752" id="rect4555-4-1-9"
            width="1.8770752" x="393.85806" y="641.56104" />
        <g id="g4569-7-3-4" transform="matrix(0.21907975,0,0,0.21907975,326.25095,598.87644)">
            <path style="fill:#272525"
                d="m 317.171,212.013 h -8.566 c -4.761,0 -8.62,-3.858 -8.62,-8.62 v -8.566 c 0,-4.761 3.858,-8.62 8.62,-8.62 h 8.566 c 4.761,0 8.62,3.858 8.62,8.62 v 8.566 c 0,4.762 -3.859,8.62 -8.62,8.62 z"
                id="path4557-4-4-0" inkscape:connector-curvature="0" />
            <path style="fill:#272525"
                d="m 341.333,293.064 h -28.444 c -4.761,0 -8.62,-3.858 -8.62,-8.62 0,-4.762 3.858,-8.62 8.62,-8.62 h 28.444 c 4.761,0 8.62,3.858 8.62,8.62 0,4.762 -3.858,8.62 -8.62,8.62 z"
                id="path4559-8-43-4" inkscape:connector-curvature="0" />
            <path style="fill:#272525"
                d="m 284.439,293.064 c -2.26,0 -4.484,-0.914 -6.085,-2.517 -1.603,-1.62 -2.534,-3.829 -2.534,-6.103 0,-2.26 0.931,-4.484 2.534,-6.103 1.603,-1.605 3.827,-2.517 6.085,-2.517 2.274,0 4.498,0.912 6.103,2.517 1.603,1.619 2.517,3.827 2.517,6.103 0,2.274 -0.914,4.498 -2.517,6.103 -1.605,1.603 -3.829,2.517 -6.103,2.517 z"
                id="path4561-8-6-5" inkscape:connector-curvature="0" />
            <path style="fill:#272525"
                d="m 312.884,349.953 c -2.276,0 -4.499,-0.931 -6.085,-2.536 -1.603,-1.586 -2.534,-3.81 -2.534,-6.084 0,-2.276 0.931,-4.499 2.534,-6.103 1.603,-1.605 3.827,-2.517 6.085,-2.517 2.274,0 4.498,0.912 6.103,2.517 1.603,1.619 2.517,3.843 2.517,6.103 0,2.274 -0.914,4.482 -2.517,6.084 -1.606,1.605 -3.829,2.536 -6.103,2.536 z"
                id="path4563-6-3-1" inkscape:connector-curvature="0" />
            <path style="fill:#272525"
                d="m 284.444,349.953 c -4.761,0 -8.62,-3.858 -8.62,-8.62 v -28.444 c 0,-4.761 3.858,-8.62 8.62,-8.62 4.762,0 8.62,3.858 8.62,8.62 v 28.444 c 0,4.762 -3.858,8.62 -8.62,8.62 z"
                id="path4565-4-8-7" inkscape:connector-curvature="0" />
            <path style="fill:#272525"
                d="m 341.333,321.508 h -28.444 c -4.761,0 -8.62,-3.858 -8.62,-8.62 0,-4.762 3.858,-8.62 8.62,-8.62 h 28.444 c 4.761,0 8.62,3.858 8.62,8.62 0,4.762 -3.858,8.62 -8.62,8.62 z"
                id="path4567-24-8-4" inkscape:connector-curvature="0" />
        </g>
    </g>
    <path style="fill:#7cd8a4;stroke-width:0.39305085"
        d="m 607.89169,605.44063 v 0 c -6.88585,0 -12.51906,5.63399 -12.51906,12.51906 v 58.72887 h -19.92885 v -41.97901 c 0,-18.27174 -14.94968,-33.22104 -33.22105,-33.22104 v 0 c -18.27137,0 -33.22105,14.94969 -33.22105,33.22104 v 58.31342 H 484.4926 v -30.09983 c 0,-6.88546 -5.63399,-12.51907 -12.51906,-12.51907 v 0 c -6.88585,0 -12.51907,5.63361 -12.51907,12.51907 v 30.09983 11.75183 c 0,7.33787 5.94883,13.2867 13.28669,13.2867 h 11.75144 24.50908 v 63.95997 h 66.44249 V 701.7267 h 19.92887 11.75182 c 7.33786,0 13.28669,-5.94883 13.28669,-13.28669 v -11.75184 -58.72848 c -7.5e-4,-6.88585 -5.63399,-12.51906 -12.51986,-12.51906 z"
        id="path3994-0" inkscape:connector-curvature="0" />
    <g style="opacity:0.3" id="g4002"
        transform="matrix(0.39305084,0,0,0.39305084,444.01386,582.86615)">
        <path style="fill:#328777"
            d="m 303.75,131.9 v 106.803 h 30.431 V 131.9 c 0,-46.487 -38.035,-84.521 -84.521,-84.521 v 0 c -5.193,0 -10.273,0.499 -15.215,1.408 39.285,7.221 69.305,41.82 69.305,83.113 z"
            id="path3996-2" inkscape:connector-curvature="0" />
        <rect style="fill:#328777" height="204.28999" id="rect3998" width="30.436001" x="303.745"
            y="302.40302" />
        <path style="fill:#328777"
            d="m 416.734,57.434 v 0 c -5.501,0 -10.687,1.415 -15.216,3.897 9.89,5.421 16.636,15.938 16.636,27.954 v 149.418 29.898 c 0,18.669 -15.135,33.804 -33.804,33.804 h 0.533 29.898 c 18.669,0 33.804,-15.135 33.804,-33.804 V 238.703 89.285 c 0,-17.519 -14.333,-31.851 -31.851,-31.851 z"
            id="path4000" inkscape:connector-curvature="0" />
    </g>
    <g id="g4030" transform="matrix(0.39305084,0,0,0.39305084,444.01386,582.86615)">
        <path style="fill:#328777"
            d="m 248.822,168.789 c -4.311,0 -7.804,-3.493 -7.804,-7.804 V 85.616 c 0,-4.311 3.493,-7.804 7.804,-7.804 4.311,0 7.804,3.493 7.804,7.804 v 75.369 c 0,4.31 -3.493,7.804 -7.804,7.804 z"
            id="path4004" inkscape:connector-curvature="0" />
        <path style="fill:#328777"
            d="m 417.959,157.687 c -4.311,0 -7.804,-3.493 -7.804,-7.804 V 85.616 c 0,-4.311 3.493,-7.804 7.804,-7.804 4.311,0 7.804,3.493 7.804,7.804 v 64.267 c 0,4.31 -3.493,7.804 -7.804,7.804 z"
            id="path4006" inkscape:connector-curvature="0" />
        <path style="fill:#328777"
            d="m 417.959,243.153 c -4.311,0 -7.804,-3.493 -7.804,-7.804 v -45.804 c 0,-4.311 3.493,-7.804 7.804,-7.804 4.311,0 7.804,3.493 7.804,7.804 v 45.804 c 0,4.311 -3.493,7.804 -7.804,7.804 z"
            id="path4008" inkscape:connector-curvature="0" />
        <path style="fill:#328777"
            d="m 70.711,256.301 c -4.311,0 -7.804,-3.493 -7.804,-7.804 v -45.804 c 0,-4.311 3.493,-7.804 7.804,-7.804 4.311,0 7.804,3.493 7.804,7.804 v 45.804 c 0,4.311 -3.493,7.804 -7.804,7.804 z"
            id="path4010-9" inkscape:connector-curvature="0" />
        <path style="fill:#328777"
            d="m 70.711,313.105 c -4.311,0 -7.804,-3.493 -7.804,-7.804 v -21.562 c 0,-4.311 3.493,-7.804 7.804,-7.804 4.311,0 7.804,3.493 7.804,7.804 v 21.562 c 0,4.31 -3.493,7.804 -7.804,7.804 z"
            id="path4012-9" inkscape:connector-curvature="0" />
        <path style="fill:#328777"
            d="m 248.822,415.1 c -4.311,0 -7.804,-3.493 -7.804,-7.804 V 191.628 c 0,-4.311 3.493,-7.804 7.804,-7.804 4.311,0 7.804,3.493 7.804,7.804 v 215.67 c 0,4.309 -3.493,7.802 -7.804,7.802 z"
            id="path4014" inkscape:connector-curvature="0" />
        <path style="fill:#328777"
            d="m 289.275,261.651 c -4.311,0 -7.804,-3.493 -7.804,-7.804 V 110.219 c 0,-4.311 3.493,-7.804 7.804,-7.804 4.311,0 7.804,3.493 7.804,7.804 v 143.627 c 0,4.311 -3.493,7.805 -7.804,7.805 z"
            id="path4016" inkscape:connector-curvature="0" />
        <path style="fill:#328777"
            d="m 289.275,447.457 c -4.311,0 -7.804,-3.493 -7.804,-7.804 V 296.026 c 0,-4.311 3.493,-7.804 7.804,-7.804 4.311,0 7.804,3.493 7.804,7.804 v 143.627 c 0,4.311 -3.493,7.804 -7.804,7.804 z"
            id="path4018" inkscape:connector-curvature="0" />
        <path style="fill:#328777"
            d="m 241.018,506.691 v -64.356 c 0,-4.311 3.493,-7.804 7.804,-7.804 4.311,0 7.804,3.493 7.804,7.804 v 64.356 z"
            id="path4020" inkscape:connector-curvature="0" />
        <path style="fill:#328777"
            d="m 207.602,267.265 c -4.311,0 -7.804,-3.493 -7.804,-7.804 V 110.219 c 0,-4.311 3.493,-7.804 7.804,-7.804 4.311,0 7.804,3.493 7.804,7.804 v 149.242 c 0,4.311 -3.493,7.804 -7.804,7.804 z"
            id="path4022" inkscape:connector-curvature="0" />
        <path style="fill:#328777"
            d="m 207.602,435.976 c -4.311,0 -7.804,-3.493 -7.804,-7.804 V 296.577 c 0,-4.311 3.493,-7.804 7.804,-7.804 4.311,0 7.804,3.493 7.804,7.804 v 131.595 c 0,4.31 -3.493,7.804 -7.804,7.804 z"
            id="path4024" inkscape:connector-curvature="0" />
        <path style="fill:#328777"
            d="m 199.798,506.691 v -37.127 c 0,-4.624 3.493,-8.372 7.804,-8.372 4.311,0 7.804,3.748 7.804,8.372 v 37.127 z"
            id="path4026" inkscape:connector-curvature="0" />
        <path style="fill:#328777"
            d="m 281.47,506.431 v -37.36 c 0,-4.352 3.493,-7.878 7.804,-7.878 4.311,0 7.804,3.526 7.804,7.878 v 37.36 z"
            id="path4028" inkscape:connector-curvature="0" />
    </g>
    <polygon style="fill:#ff3f62" id="polygon4032"
        points="212.028,54.951 285.617,54.951 285.617,10.594 248.822,47.388 212.028,10.594 "
        transform="matrix(0.39305084,0,0,0.39305084,444.01386,582.86615)" />
    <g id="g4046" transform="matrix(0.39305084,0,0,0.39305084,444.01386,581.36615)" />
    <g id="g4048" transform="matrix(0.39305084,0,0,0.39305084,444.01386,581.36615)" />
    <g id="g4050" transform="matrix(0.39305084,0,0,0.39305084,444.01386,581.36615)" />
    <g id="g4052" transform="matrix(0.39305084,0,0,0.39305084,444.01386,581.36615)" />
    <g id="g4054" transform="matrix(0.39305084,0,0,0.39305084,444.01386,581.36615)" />
    <g id="g4056" transform="matrix(0.39305084,0,0,0.39305084,444.01386,581.36615)" />
    <g id="g4058" transform="matrix(0.39305084,0,0,0.39305084,444.01386,581.36615)" />
    <g id="g4060" transform="matrix(0.39305084,0,0,0.39305084,444.01386,581.36615)" />
    <g id="g4062" transform="matrix(0.39305084,0,0,0.39305084,444.01386,581.36615)" />
    <g id="g4064" transform="matrix(0.39305084,0,0,0.39305084,444.01386,581.36615)" />
    <g id="g4066" transform="matrix(0.39305084,0,0,0.39305084,444.01386,581.36615)" />
    <g id="g4068" transform="matrix(0.39305084,0,0,0.39305084,444.01386,581.36615)" />
    <g id="g4070" transform="matrix(0.39305084,0,0,0.39305084,444.01386,581.36615)" />
    <g id="g4072" transform="matrix(0.39305084,0,0,0.39305084,444.01386,581.36615)" />
    <g id="g4074" transform="matrix(0.39305084,0,0,0.39305084,444.01386,581.36615)" />
    <path style="fill:#3eac92;stroke-width:0.39305085"
        d="m 495.00828,782.02147 c 7.10401,0 12.86298,-5.75898 12.86298,-12.86337 0,-7.10439 -5.75897,-12.86299 -12.86298,-12.86299 -1.22317,0 -2.40507,0.17413 -3.52644,0.49329 -0.5605,-8.23206 -7.41059,-14.73705 -15.78454,-14.73705 -8.3307,0 -15.1529,6.43778 -15.77509,14.6093 -0.97673,-0.23701 -1.99591,-0.36592 -3.04576,-0.36592 -7.1036,3.8e-4 -12.86259,5.75937 -12.86259,12.86337 0,7.10401 5.75899,12.86337 12.86298,12.86337 z"
        id="path4042" inkscape:connector-curvature="0" />
    <path style="opacity:0.3;fill:#266659;stroke-width:0.39305085;enable-background:new"
        d="m 503.67506,760.49172 c -0.62496,6.5219 -6.11706,11.62172 -12.80246,11.62172 h -38.13143 c -3.33897,0 -6.38001,-1.27269 -8.66677,-3.35861 -0.039,0.40877 -0.0606,0.82226 -0.0606,1.24165 0,7.10401 5.75898,12.86298 12.86298,12.86298 h 38.13144 c 7.10399,0 12.86298,-5.75897 12.86298,-12.86298 5.2e-4,-3.76543 -1.61779,-7.15235 -4.19622,-9.50476 z"
        id="path4044" inkscape:connector-curvature="0" />
</svg>
