<?xml version="1.0" encoding="UTF-8" standalone="no"?><!-- Generator: Adobe Illustrator 21.0.0, SVG Export Plug-In . SVG Version: 6.00 Build 0)  -->

<svg xmlns:cc="http://creativecommons.org/ns#" xmlns:dc="http://purl.org/dc/elements/1.1/"
    xmlns:inkscape="http://www.inkscape.org/namespaces/inkscape"
    xmlns:rdf="http://www.w3.org/1999/02/22-rdf-syntax-ns#"
    xmlns:sodipodi="http://sodipodi.sourceforge.net/DTD/sodipodi-0.dtd"
    style="enable-background:new 0 0 512 512;" height="512" id="Capa_1" version="1.1"
    viewBox="0 0 512 512" width="512" x="0px" xmlns="http://www.w3.org/2000/svg" y="0px"
    inkscape:version="0.92.4 (5da689c313, 2019-01-14)" sodipodi:docname="clue_unchecked.svg"
    xml:space="preserve"><metadata
   id="metadata27"><rdf:RDF><cc:Work
       rdf:about=""><dc:format>image/svg+xml</dc:format><dc:type
    rdf:resource="http://purl.org/dc/dcmitype/StillImage" /></cc:Work></rdf:RDF></metadata>
    <defs id="defs25"></defs>
    <sodipodi:namedview bordercolor="#666666" borderopacity="1" gridtolerance="10"
        guidetolerance="10" id="namedview23" objecttolerance="10" pagecolor="#ffffff"
        showgrid="false" inkscape:current-layer="g20" inkscape:cx="115.63104"
        inkscape:cy="271.12755" inkscape:pageopacity="0" inkscape:pageshadow="2"
        inkscape:window-height="781" inkscape:window-maximized="0" inkscape:window-width="1764"
        inkscape:window-x="97" inkscape:window-y="318" inkscape:zoom="0.97968464" />
    <g id="g20">
	<g style="fill:#ffd15d;fill-opacity:1" id="g12">
		<g style="fill:#ffd15d;fill-opacity:1" id="g10">
			<g style="fill:#ffd15d;fill-opacity:1" id="g8">
				<g style="fill:#ffd15d;fill-opacity:1" id="g6">
					<g style="fill:#ffd15d;fill-opacity:1" id="g4">
						<circle style="fill:#ffd15d;fill-opacity:1" cx="256" cy="256" id="circle2"
                            r="256" />
					</g>
				</g>
			</g>
		</g>
	</g>
        <path style="fill:#f9b54c;fill-opacity:1"
            d="M512,256c0-4.211-0.109-8.397-0.31-12.558l-94.266-94.266L99.572,355.632l55.614,55.614L144,435   l74.219,74.219C230.549,511.043,243.162,512,256,512C397.385,512,512,397.385,512,256z"
            id="path14" />
        <path style="fill:#FFFFFF;"
            d="M393.674,138H118.326c-17.025,0-30.826,13.801-30.826,30.826v162.348   c0,17.025,13.801,30.826,30.826,30.826H144v73l87.407-73h162.266c17.025,0,30.826-13.801,30.826-30.826V168.826   C424.5,151.801,410.699,138,393.674,138z"
            id="path16" />
        <path style="fill:#DCE1EB;"
            d="M393.674,138H255.905v224h137.769c17.025,0,30.826-13.801,30.826-30.826V168.826   C424.5,151.801,410.699,138,393.674,138z"
            id="path18" />
        <rect style="fill:#59595b;fill-opacity:1;stroke-width:1.25058651" height="17" id="rect867"
            ry="8.3728313" width="265" x="122" y="177" />
        <rect style="fill:#59595b;fill-opacity:1;stroke-width:0.61936617" height="17" id="rect867-4"
            ry="8.3728313" width="65" x="205" y="209" />
        <rect style="fill:#59595b;fill-opacity:1;stroke-width:0.61936617" height="17"
            id="rect867-4-6-1" ry="8.3728313" width="65" x="122" y="241" />
        <rect style="fill:#59595b;fill-opacity:1;stroke-width:0.84197283" height="17"
            id="rect867-4-6-1-5" ry="8.3728313" width="120.11978" x="122" y="209" />
        <path style="fill:#324a5e;fill-opacity:1;stroke-width:0.40799668"
            d="M 228.56821,288.51505 216,301.08326 255.91514,341 l 5.92552,-12.5698 -5.92552,-12.56822 z m 0,0"
            id="path6-9" inkscape:connector-curvature="0" />
        <path style="fill:#2b3b4e;fill-opacity:1;stroke-width:0.40799668"
            d="M 338.7971,232.06489 255,315.86198 V 341 l 96.36531,-96.36531 z m 0,0" id="path8-1"
            inkscape:connector-curvature="0" />
        <path style="fill:#272525;fill-opacity:1"
            d="M 255.18359 177 L 255.18359 194 L 378.62695 194 C 383.2655 194 387 190.2655 387 185.62695 L 387 185.37305 C 387 180.7345 383.2655 177 378.62695 177 L 255.18359 177 z "
            id="rect4754" />
        <path style="fill:#272525;fill-opacity:1;stroke-width:0.61936617"
            d="M 257.22656 209 L 257.22656 226 L 261.62695 226 C 266.2655 226 270 222.2655 270 217.62695 L 270 217.37305 C 270 212.7345 266.2655 209 261.62695 209 L 257.22656 209 z "
            id="rect867-4-0" /></g>















</svg>